<svg width="10" height="14" viewBox="0 0 10 14" fill="none" xmlns="http://www.w3.org/2000/svg">
<path d="M7.21969 9.3015V11.412H3.60073V14H0.902461V11.412H0V9.3015H0.902461V8.15553H0V5.92087H0.902461V0H4.74932C6.18353 0 7.21969 0.127331 7.85779 0.381992C8.50198 0.630287 9.02157 1.07594 9.41659 1.71896C9.80553 2.35562 10 3.09095 10 3.92497C10 4.60618 9.91796 5.18554 9.75387 5.66303C9.59587 6.13415 9.37709 6.52569 9.09754 6.83765C8.81799 7.14961 8.48678 7.39473 8.10392 7.57299C7.72106 7.75125 7.30477 7.88495 6.85506 7.97408C6.40535 8.05684 5.93437 8.10778 5.44211 8.12688C4.95594 8.14598 4.46369 8.15553 3.96536 8.15553H3.60073V9.3015H7.21969ZM3.60073 5.92087H3.76481C5.05925 5.92087 5.86752 5.86357 6.18961 5.74898C6.51778 5.63438 6.76998 5.43702 6.94622 5.15689C7.12853 4.87676 7.21969 4.5266 7.21969 4.10641C7.21969 3.62892 7.10422 3.24693 6.87329 2.96044C6.64236 2.66758 6.299 2.48613 5.84321 2.4161C5.73382 2.40337 5.51504 2.39382 5.18687 2.38745C4.86478 2.37472 4.42723 2.36835 3.8742 2.36835H3.60073V5.92087Z" fill="#0072BC"/>
</svg>
