<?xml version="1.0" encoding="iso-8859-1"?>
<!-- Generator: Adobe Illustrator 27.0.1, SVG Export Plug-In . SVG Version: 6.00 Build 0)  -->
<svg version="1.1" id="&#x421;&#x43B;&#x43E;&#x439;_1"
	 xmlns="http://www.w3.org/2000/svg" xmlns:xlink="http://www.w3.org/1999/xlink" x="0px" y="0px" viewBox="0 0 122.88 122.88"
	 style="enable-background:new 0 0 122.88 122.88;" xml:space="preserve">
<path style="fill:#39404B;" d="M112.424,8c-0.799,0.235-1.41,1.069-1.41,1.938c0,1.68,2.02,2.537,3.277,1.386
	C115.843,9.939,114.421,7.424,112.424,8 M104.248,27.948c-1.609,0.729-1.527,2.972,0.129,3.607c1.715,0.646,3.289-1.222,2.373-2.819
	c-0.294-0.529-1.093-1.011-1.656-1.011C104.894,27.724,104.518,27.83,104.248,27.948z M80.341,27.995
	c-0.634,0.34-1.045,0.998-1.045,1.703c0,1.739,2.032,2.643,3.277,1.456c1.057-1.01,0.811-2.608-0.505-3.207
	C81.423,27.654,80.964,27.666,80.341,27.995z M91.161,17.857v1.997h-4.018l0.047,3.489c0.047,3.266,0.059,3.548,0.306,4.241
	c0.834,2.35,2.796,3.888,5.239,4.089c1.034,0.093,1.692,0.387,2.068,0.951c0.258,0.388,0.294,0.564,0.329,1.762l0.047,1.327h-1.045
	c-1.739,0-2.444-0.352-2.82-1.422l-0.212-0.576h-3.948l0.083,0.552c0.305,2.103,1.41,3.724,3.148,4.629l0.776,0.399v4.288h3.994
	V39.59h4.017l-0.047-3.501c-0.047-3.254-0.059-3.536-0.305-4.229c-0.834-2.35-2.796-3.888-5.239-4.088
	c-1.034-0.094-1.692-0.387-2.068-0.951c-0.27-0.388-0.294-0.541-0.294-1.727v-1.304l0.963-0.035c1.668-0.059,2.444,0.329,2.82,1.398
	l0.211,0.575h3.935l-0.071-0.505c-0.294-2.126-1.398-3.77-3.148-4.675l-0.775-0.399V15.86h-3.994V17.857z M95.015,11.995
	c2.972,0.317,5.756,1.351,8.305,3.089c1.374,0.928,3.548,3.102,4.476,4.476c3.735,5.509,4.229,12.253,1.304,18.091
	c-0.892,1.798-1.868,3.148-3.372,4.64c-3.066,3.078-6.708,4.781-11.066,5.193c-4.03,0.376-8.129-0.729-11.665-3.125
	c-1.374-0.928-3.548-3.102-4.476-4.476c-3.735-5.509-4.229-12.253-1.304-18.091c0.892-1.797,1.868-3.148,3.371-4.64
	c0.776-0.776,1.809-1.668,2.408-2.068C86.638,12.606,90.821,11.536,95.015,11.995z M91.337,7.989
	c-9.046,0.799-16.635,7.037-19.137,15.718c-0.587,2.067-0.799,3.642-0.799,6.014c0,2.373,0.212,3.948,0.799,6.015
	c2.067,7.201,7.741,12.876,14.943,14.943c2.067,0.587,3.642,0.799,6.015,0.799c2.373,0,3.947-0.212,6.014-0.799
	c7.201-2.067,12.876-7.741,14.943-14.943c0.587-2.056,0.799-3.642,0.799-6.015c0-2.373-0.211-3.958-0.799-6.014
	c-2.067-7.201-7.741-12.876-14.943-14.943C96.847,8.094,93.652,7.777,91.337,7.989z M75.302,9.868v1.997h3.994V7.871h-3.994V9.868z
	 M67.431,9.868v1.997h3.877V7.871h-3.877V9.868z M59.443,9.868v1.997h3.994V7.871h-3.994V9.868z M55.449,116.947v1.938H23.73v-3.877
	h31.719V116.947z M68.759,106.515c3.301,2.819,5.827,7.472,6.367,11.76l0.082,0.611h-7.777v-6.696c0-5.756,0.023-6.696,0.164-6.614
	C67.689,105.623,68.218,106.057,68.759,106.515z M11.865,112.19v6.696H4.111v-0.306c0-0.164,0.106-0.822,0.235-1.468
	c0.846-4.146,3.101-7.976,6.32-10.737c0.564-0.482,1.057-0.881,1.116-0.881C11.83,105.494,11.865,108.501,11.865,112.19z
	 M26.596,103.849c0.517,0.247,1.434,0.599,2.009,0.776c0.963,0.294,1.234,0.328,3.054,0.328c1.727,0.012,2.126-0.023,2.996-0.258
	c1.28-0.34,3.125-1.245,4.17-2.044l0.822-0.635l0.705,0.576c0.904,0.728,3.019,1.773,4.229,2.091
	c1.175,0.305,3.524,0.423,4.758,0.235c1.844-0.294,4.217-1.34,5.521-2.456c0.247-0.199,0.482-0.376,0.517-0.376
	c0.035,0,0.071,2.009,0.071,4.464v4.464H23.73v-9.046l0.952,0.705C25.211,103.073,26.068,103.59,26.596,103.849z M19.853,110.193
	v8.693h-3.994l0.023-7.894l0.036-7.894l1.821-0.799c0.999-0.435,1.892-0.799,1.974-0.799
	C19.818,101.499,19.853,103.32,19.853,110.193z M61.792,102.416l1.586,0.693l0.035,7.895l0.023,7.883h-3.994v-17.492l0.388,0.164
	C60.03,101.64,60.923,102.028,61.792,102.416z M50.456,97.458c1.422,0.622,2.608,1.163,2.643,1.186
	c0.141,0.141-1.163,1.128-2.033,1.562c-1.28,0.623-2.126,0.822-3.489,0.822c-1.269,0-2.173-0.2-3.289-0.717
	c-0.751-0.353-1.997-1.21-1.997-1.374c0-0.047,0.388-0.176,0.858-0.294c1.104-0.27,2.772-1.093,3.724-1.832
	c0.423-0.317,0.822-0.564,0.881-0.541C47.824,96.295,49.034,96.824,50.456,97.458z M32.388,96.824
	c1.011,0.752,2.655,1.563,3.759,1.833c0.47,0.106,0.858,0.235,0.858,0.282c0,0.141-1.469,1.139-2.127,1.445
	c-1.01,0.458-1.938,0.646-3.16,0.646c-1.363,0-2.349-0.223-3.454-0.775c-0.799-0.411-1.986-1.268-2.056-1.515
	c-0.024-0.059,1.175-0.658,2.643-1.304c1.48-0.658,2.702-1.198,2.713-1.21C31.577,96.213,31.953,96.483,32.388,96.824z
	 M79.296,97.094v5.933h-3.994V91.161h3.994V97.094z M36.688,90.339c0.493,0.2,1.375,0.482,1.938,0.634l1.034,0.282l1.292-0.388
	c0.705-0.2,1.574-0.493,1.927-0.634c0.81-0.317,0.822-0.317,0.822,0.07c0,0.505,0.294,1.492,0.705,2.349l0.364,0.787l-0.27,0.212
	c-0.529,0.411-1.81,1.022-2.561,1.222c-1.057,0.282-3.524,0.282-4.582,0c-0.858-0.235-2.009-0.764-2.502-1.163l-0.317-0.258
	l0.399-0.928c0.224-0.517,0.47-1.292,0.552-1.739c0.082-0.435,0.176-0.799,0.211-0.799C35.736,89.987,36.183,90.151,36.688,90.339z
	 M87.167,93.159v9.868H83.29V83.291h3.877V93.159z M95.155,89.164v13.862h-3.994V75.302h3.994V89.164z M103.026,85.229v17.798H99.15
	V67.431h3.877V85.229z M111.015,81.235v21.792h-3.994V59.443h3.994V81.235z M38.18,55.919c1.609,0.446,2.597,1.045,5.31,3.207
	c2.902,2.314,3.818,2.878,5.662,3.512c1.187,0.4,3.148,0.799,3.983,0.799c0.176,0,0.317,0.071,0.317,0.141c0,0.082,0,1.727,0,3.654
	c0,2.913-0.047,3.724-0.235,4.84c-1.175,6.86-6.073,12.57-12.675,14.778c-0.822,0.282-0.893,0.282-1.469,0.118
	c-1.046-0.306-2.949-1.151-4.018-1.798c-1.41-0.834-2.255-1.492-3.5-2.69c-3.337-3.231-5.252-7.237-5.709-11.936
	c-0.059-0.646-0.106-3.184-0.106-5.639v-4.464l2.314-1.727c2.596-1.938,3.771-2.573,5.38-2.926
	C34.796,55.496,36.875,55.554,38.18,55.919z M42.656,35.901c9.938,1.386,17.668,9.457,18.667,19.489
	c0.082,0.881,0.117,5.979,0.094,15.977l-0.035,14.672l-1.057,0.4c-1.351,0.505-4.617,1.339-6.567,1.668
	c-1.892,0.317-5.005,0.705-5.674,0.705h-0.506v-0.517c0-0.517,0.012-0.529,1.034-1.316c4.816-3.747,7.953-9.292,8.717-15.436
	c0.059-0.564,0.117-3.383,0.117-6.532v-5.545l-2.784-0.059c-3.161-0.059-3.548-0.129-5.263-0.963
	c-0.799-0.388-1.668-0.999-3.583-2.526c-3.383-2.702-4.347-3.254-6.825-3.948c-1.492-0.411-4.241-0.516-5.768-0.235
	c-2.749,0.517-4.076,1.222-8.247,4.335l-3.266,2.455l0.059,6.18c0.059,6.614,0.117,7.389,0.716,9.762
	c0.776,3.043,2.209,5.98,4.159,8.517c0.892,1.151,2.549,2.82,3.841,3.842c1.222,0.963,1.233,0.986,1.233,1.48v0.505H31.19
	c-0.881,0-5.039-0.564-6.919-0.94c-2.009-0.411-4.206-0.998-5.486-1.492l-0.869-0.341V70.603c0-16.717-0.024-16.035,0.658-18.679
	c2.185-8.47,9.562-14.955,18.314-16.082C38.203,35.666,41.257,35.701,42.656,35.901z M51.513,19.701
	c-0.035,0.118-1.456,0.153-6.543,0.153h-6.496l13.04-13.04l0.035,6.367C51.56,16.694,51.548,19.631,51.513,19.701z M118.886,57.505
	v53.51H77.064l-0.352-0.717c-0.2-0.387-0.6-1.092-0.893-1.55c-0.376-0.611-0.517-0.963-0.517-1.28v-0.447h39.707l-0.024-25.751
	l-0.035-25.763h-11.865l-0.035,3.959l-0.023,3.971h-7.871v7.871l-3.959,0.023l-3.971,0.035l-0.035,3.959l-0.023,3.971h-7.871v7.871
	l-3.959,0.023l-3.971,0.035l-0.035,8.07l-0.023,8.083l-0.975-0.752c-2.35-1.821-2.914-2.091-12.499-6.285
	c-7.213-3.148-8.305-3.642-8.118-3.653c0.047,0,1.069-0.13,2.279-0.294c5.345-0.728,10.079-2.068,12.523-3.548l0.928-0.552
	L65.399,71.66c-0.035-18.02-0.011-17.257-0.681-20.124c-1.198-5.134-4.205-10.079-8.247-13.545
	c-4.053-3.477-9.034-5.627-14.356-6.167c-1.445-0.141-4.734-0.082-5.838,0.117l-0.564,0.094V23.73h19.736V3.995h63.437V57.505z
	 M42.197,10.491L31.718,20.97v11.982l-0.975,0.34c-1.386,0.494-4.006,1.833-5.404,2.773c-3.77,2.526-6.743,5.897-8.752,9.927
	c-1.163,2.338-1.856,4.417-2.396,7.225c-0.258,1.351-0.258,1.398-0.294,18.209l-0.035,16.858l0.669,0.423
	c2.632,1.668,7.46,3.019,13.533,3.794c0.811,0.106,1.48,0.212,1.504,0.235c0.023,0.024-3.747,1.692-8.388,3.725
	c-4.629,2.032-8.952,3.994-9.598,4.37C4.346,105,0,112.624,0,121.13v1.75h79.332l-0.071-2.209c-0.059-2.032-0.329-4.158-0.657-5.286
	l-0.118-0.376h44.394V0H52.688L42.197,10.491z"/>
</svg>
