<?xml version="1.0" encoding="iso-8859-1"?>
<!-- Generator: Adobe Illustrator 27.0.1, SVG Export Plug-In . SVG Version: 6.00 Build 0)  -->
<svg version="1.1" id="&#x421;&#x43B;&#x43E;&#x439;_1"
	 xmlns="http://www.w3.org/2000/svg" xmlns:xlink="http://www.w3.org/1999/xlink" x="0px" y="0px" viewBox="0 0 122.88 122.88"
	 style="enable-background:new 0 0 122.88 122.88;" xml:space="preserve">
<path style="fill:#39404B;" d="M94.139,65.581c0.066,0.036,0.132,0.156,0.15,0.288c0.018,0.12,0.09,0.45,0.156,0.732
	c0.24,0.996,0.348,1.476,0.474,2.07c0.252,1.175,0.678,2.856,0.792,3.15c0.252,0.648,0.876,1.212,1.518,1.386
	c0.222,0.06,0.912,0.306,1.35,0.474c0.18,0.072,0.439,0.174,0.564,0.222c0.282,0.102,1.59,0.75,2.316,1.14
	c0.492,0.27,0.528,0.282,1.116,0.306c0.582,0.024,0.624,0.018,0.99-0.162c0.209-0.102,0.467-0.24,0.564-0.306
	c0.102-0.066,0.276-0.174,0.39-0.24c0.114-0.066,0.372-0.228,0.57-0.36c0.199-0.132,0.456-0.294,0.57-0.36
	c0.114-0.066,0.372-0.228,0.571-0.36c0.198-0.132,0.456-0.294,0.57-0.36c0.114-0.066,0.372-0.228,0.57-0.36
	c0.198-0.132,0.462-0.3,0.594-0.372c0.126-0.078,0.282-0.168,0.342-0.204c0.065-0.036,0.162-0.108,0.222-0.162
	c0.06-0.06,0.162-0.102,0.228-0.102c0.114,0,3.084,2.91,3.084,3.024c0,0.03-0.102,0.204-0.222,0.39
	c-0.264,0.39-0.294,0.438-0.498,0.786c-0.084,0.138-0.18,0.306-0.216,0.366c-0.036,0.066-0.108,0.162-0.156,0.216
	c-0.049,0.06-0.108,0.15-0.132,0.198c-0.018,0.048-0.114,0.21-0.216,0.36c-0.096,0.15-0.257,0.402-0.359,0.57
	c-0.102,0.162-0.264,0.42-0.36,0.57c-0.095,0.15-0.258,0.402-0.359,0.57c-0.102,0.162-0.264,0.42-0.361,0.57
	c-0.431,0.678-0.503,0.888-0.503,1.53c0,0.654,0,0.654,0.576,1.71c0.408,0.738,0.762,1.476,0.912,1.89
	c0.043,0.132,0.144,0.39,0.216,0.57c0.072,0.18,0.216,0.6,0.33,0.93c0.3,0.906,0.522,1.242,1.043,1.596
	c0.415,0.282,0.583,0.336,2.557,0.828c0.263,0.066,0.654,0.162,0.87,0.222c0.216,0.054,0.486,0.12,0.6,0.144
	c0.69,0.144,2.129,0.552,2.171,0.618c0.024,0.036,0.049,0.978,0.049,2.082c0,2.274,0.006,2.238-0.433,2.31
	c-0.144,0.024-0.462,0.09-0.708,0.15c-0.629,0.156-1.362,0.33-2.07,0.48c-2.766,0.606-3.263,0.762-3.749,1.188
	c-0.397,0.348-0.558,0.606-0.78,1.254c-0.546,1.614-1.002,2.682-1.56,3.648c-0.492,0.846-0.51,0.912-0.51,1.65
	c0,0.665,0.006,0.702,0.192,1.02c0.558,0.948,0.498,0.846,0.822,1.35c0.245,0.372,0.348,0.54,0.726,1.14
	c0.127,0.198,0.288,0.456,0.361,0.57c0.072,0.114,0.234,0.372,0.359,0.57c0.127,0.198,0.276,0.432,0.336,0.522
	c0.066,0.09,0.114,0.18,0.114,0.198c0,0.018,0.096,0.168,0.21,0.33c0.114,0.162,0.21,0.348,0.21,0.408
	c0,0.06-0.654,0.756-1.494,1.596l-1.494,1.488l-0.288-0.168c-0.162-0.09-0.42-0.258-0.576-0.366c-0.156-0.108-0.3-0.198-0.318-0.198
	c-0.018,0-0.107-0.048-0.198-0.108c-0.473-0.33-0.918-0.612-0.948-0.612c-0.018,0-0.102-0.048-0.192-0.108
	c-0.091-0.066-0.27-0.18-0.402-0.264c-0.132-0.084-0.396-0.252-0.582-0.372c-0.192-0.12-0.505-0.318-0.691-0.444
	c-0.498-0.324-0.546-0.348-0.978-0.564c-0.366-0.186-0.426-0.198-1.02-0.198c-0.678,0-0.618-0.018-1.47,0.45
	c-0.504,0.276-1.44,0.738-1.83,0.894c-0.18,0.078-0.407,0.174-0.51,0.222c-0.198,0.09-0.582,0.228-0.99,0.36
	c-0.15,0.048-0.354,0.126-0.463,0.174c-0.101,0.048-0.234,0.09-0.287,0.09c-0.342,0-1.086,0.702-1.332,1.254
	c-0.156,0.36-0.438,1.41-0.438,1.638c0,0.078-0.048,0.378-0.114,0.678c-0.066,0.294-0.174,0.828-0.24,1.188
	c-0.066,0.354-0.18,0.918-0.245,1.26c-0.066,0.336-0.132,0.732-0.157,0.876c-0.072,0.504,0.007,0.486-2.298,0.486
	c-2.202,0-2.226-0.006-2.226-0.324c0-0.072-0.048-0.336-0.108-0.582c-0.06-0.246-0.174-0.714-0.246-1.044
	c-0.078-0.33-0.186-0.816-0.252-1.08c-0.06-0.264-0.168-0.738-0.234-1.05c-0.474-2.094-0.6-2.448-1.074-2.964
	c-0.348-0.372-0.737-0.582-1.536-0.816c-0.096-0.03-0.366-0.126-0.6-0.21c-0.228-0.09-0.521-0.198-0.648-0.246
	c-0.258-0.096-1.056-0.456-1.332-0.6c-0.276-0.15-0.864-0.468-1.26-0.69c-0.354-0.198-0.372-0.198-1.08-0.198
	c-0.798,0-0.744-0.024-1.77,0.624c-0.234,0.15-0.474,0.3-0.528,0.33c-0.054,0.036-0.18,0.114-0.282,0.174
	c-0.198,0.126-0.426,0.27-0.942,0.6c-0.192,0.12-0.504,0.318-0.69,0.438c-0.426,0.276-0.492,0.318-0.738,0.462
	c-0.114,0.06-0.33,0.204-0.492,0.312c-0.156,0.114-0.312,0.204-0.342,0.204c-0.03,0-0.084,0.042-0.126,0.09
	c-0.042,0.054-0.126,0.09-0.192,0.078c-0.132-0.024-3.048-2.922-3.048-3.036c0-0.042,0.108-0.24,0.24-0.438
	c0.132-0.198,0.24-0.378,0.24-0.39c0-0.018,0.048-0.102,0.114-0.192c0.138-0.204,0.558-0.846,0.636-0.984
	c0.054-0.09,0.384-0.618,0.69-1.098c0.048-0.078,0.21-0.336,0.36-0.57c0.15-0.234,0.318-0.498,0.372-0.588
	c0.57-0.888,0.666-1.128,0.696-1.752c0.03-0.666-0.042-0.882-0.612-1.872c-0.186-0.318-0.336-0.594-0.336-0.612
	c0-0.018-0.108-0.258-0.24-0.54c-0.132-0.282-0.24-0.528-0.24-0.546c0-0.024-0.036-0.126-0.084-0.228
	c-0.078-0.174-0.222-0.552-0.45-1.182c-0.042-0.114-0.114-0.33-0.163-0.48c-0.162-0.51-0.336-0.78-0.714-1.122
	c-0.444-0.408-1.062-0.66-2.13-0.864c-0.18-0.036-0.462-0.096-0.63-0.144c-0.162-0.042-0.516-0.126-0.78-0.18
	c-0.438-0.09-0.774-0.162-2.25-0.51c-0.282-0.066-0.618-0.138-0.75-0.156c-0.468-0.078-0.45,0.018-0.45-2.16
	c0-2.118,0-2.124,0.354-2.124c0.09,0,0.306-0.042,0.486-0.096c0.174-0.054,0.444-0.114,0.594-0.144
	c0.15-0.024,0.468-0.09,0.696-0.15c0.612-0.144,1.302-0.3,1.98-0.45c2.616-0.57,3.198-0.918,3.594-2.16
	c0.048-0.15,0.12-0.366,0.163-0.48c0.228-0.63,0.372-1.008,0.45-1.182c0.048-0.102,0.084-0.204,0.084-0.222
	c0-0.024,0.084-0.222,0.186-0.444c0.108-0.222,0.24-0.51,0.3-0.642c0.06-0.132,0.216-0.432,0.354-0.66
	c0.51-0.888,0.558-1.032,0.588-1.656c0.024-0.666-0.048-0.894-0.54-1.674c-0.63-1.002-0.804-1.272-0.888-1.41
	c-0.048-0.078-0.21-0.336-0.36-0.57c-0.15-0.234-0.312-0.492-0.36-0.57c-0.048-0.078-0.21-0.336-0.36-0.57
	c-0.15-0.234-0.318-0.498-0.372-0.588c-0.06-0.09-0.156-0.264-0.228-0.384c-0.066-0.12-0.144-0.234-0.18-0.258
	C72.03,75.193,72,75.127,72,75.073c0-0.114,2.928-3.072,3.042-3.072c0.042,0,0.168,0.06,0.282,0.132
	c0.114,0.078,0.366,0.234,0.558,0.354c0.192,0.12,0.51,0.324,0.708,0.45c0.198,0.126,0.408,0.258,0.462,0.294
	c0.09,0.054,0.648,0.402,1.098,0.69c0.138,0.084,0.408,0.258,1.41,0.888c0.78,0.492,1.008,0.564,1.674,0.54
	c0.624-0.03,0.768-0.078,1.656-0.588c0.234-0.138,0.528-0.294,0.666-0.354c0.138-0.066,0.402-0.186,0.582-0.276
	c0.186-0.084,0.414-0.18,0.504-0.21c0.096-0.03,0.372-0.138,0.618-0.24c0.245-0.108,0.534-0.216,0.63-0.246
	c0.762-0.21,1.331-0.474,1.613-0.75c0.528-0.516,0.708-0.984,1.176-3.084c0.066-0.312,0.174-0.786,0.234-1.05
	c0.06-0.264,0.174-0.75,0.246-1.08c0.072-0.33,0.186-0.792,0.246-1.032c0.06-0.234,0.114-0.498,0.114-0.576
	c0-0.342-0.006-0.342,2.346-0.342C93.209,65.521,94.067,65.546,94.139,65.581 M55.41,5.163c2.7,0.126,3.33,0.186,5.46,0.486
	c1.5,0.216,2.46,0.396,3.87,0.726c1.674,0.389,2.718,0.684,4.17,1.17c0.528,0.18,1.056,0.349,1.176,0.378
	c0.114,0.03,0.294,0.096,0.39,0.15c0.096,0.049,0.216,0.091,0.264,0.091s0.192,0.054,0.318,0.12c0.12,0.065,0.258,0.12,0.3,0.12
	c0.042,0,0.174,0.054,0.3,0.12c0.12,0.066,0.252,0.12,0.288,0.12c0.042,0,0.18,0.049,0.318,0.114c0.138,0.06,0.384,0.168,0.546,0.24
	c0.168,0.072,0.402,0.186,0.522,0.245c0.12,0.066,0.252,0.121,0.282,0.121c0.12,0,1.164,0.504,2.676,1.284
	c0.558,0.287,2.472,1.373,2.838,1.607c0.09,0.06,0.24,0.15,0.336,0.205c0.096,0.054,0.306,0.192,0.468,0.3
	c0.156,0.114,0.3,0.204,0.318,0.204c0.03,0,1.014,0.666,1.458,0.984c0.504,0.366,0.678,0.492,1.002,0.727
	c0.593,0.426,2.28,1.782,3.131,2.52c0.972,0.845,3.642,3.498,4.255,4.229c0.239,0.282,0.599,0.696,0.804,0.93
	c0.204,0.228,0.54,0.63,0.743,0.894c0.918,1.176,1.321,1.716,1.573,2.076c0.15,0.216,0.377,0.54,0.509,0.72
	c0.433,0.6,0.594,0.846,0.594,0.894c0,0.024,0.054,0.096,0.12,0.156c0.066,0.06,0.12,0.132,0.12,0.162
	c0,0.024,0.09,0.18,0.203,0.337c0.108,0.162,0.246,0.371,0.3,0.468c0.054,0.096,0.144,0.245,0.204,0.336
	c0.618,0.966,2.154,3.87,2.772,5.238c0.059,0.132,0.204,0.444,0.324,0.696c0.114,0.246,0.246,0.558,0.294,0.691
	c0.049,0.126,0.144,0.378,0.216,0.546c0.516,1.296,0.66,1.68,0.732,1.968c0.036,0.126,0.085,0.264,0.114,0.3
	c0.03,0.036,0.084,0.174,0.114,0.3c0.036,0.132,0.163,0.534,0.277,0.9c0.426,1.302,0.737,2.442,1.056,3.84
	c0.072,0.33,0.186,0.798,0.245,1.044c0.06,0.246,0.108,0.522,0.108,0.618c0,0.09,0.054,0.414,0.114,0.72
	c0.114,0.522,0.27,1.584,0.427,2.838c0.468,3.72,0.413,8.808-0.126,12.33c-0.036,0.216-0.102,0.66-0.15,0.984
	c-0.048,0.33-0.126,0.756-0.173,0.942c-0.049,0.186-0.091,0.414-0.091,0.51c0,0.09-0.048,0.36-0.114,0.588
	c-0.06,0.234-0.168,0.696-0.245,1.026c-0.078,0.33-0.186,0.762-0.241,0.96c-0.059,0.198-0.168,0.576-0.24,0.84
	c-0.078,0.264-0.24,0.792-0.366,1.176c-0.132,0.378-0.234,0.732-0.234,0.78c0,0.048-0.042,0.144-0.09,0.21
	c-0.09,0.114-0.09,0.114-0.18,0c-0.049-0.06-0.114-0.264-0.15-0.45c-0.036-0.186-0.12-0.594-0.186-0.906
	c-0.072-0.312-0.174-0.822-0.241-1.128c-0.264-1.29-0.365-1.752-0.473-2.238c-0.066-0.282-0.12-0.57-0.12-0.636
	c0-0.228-0.3-1.05-0.48-1.308c-0.27-0.39-0.69-0.72-1.164-0.912l-0.426-0.168h-9.84l-0.45,0.18c-0.774,0.312-1.403,1.062-1.53,1.818
	c-0.023,0.12-0.09,0.438-0.15,0.702c-0.06,0.264-0.167,0.762-0.24,1.11c-0.133,0.648-0.252,1.236-0.48,2.34
	c-0.072,0.348-0.18,0.852-0.246,1.122c-0.06,0.27-0.114,0.564-0.114,0.648c0,0.18-0.24,0.348-0.69,0.48
	c-0.162,0.048-0.396,0.132-0.51,0.186c-0.114,0.055-0.33,0.156-0.48,0.228c-0.15,0.066-0.336,0.174-0.414,0.228
	c-0.204,0.156-0.324,0.138-0.708-0.126c-0.9-0.594-1.83-1.206-1.848-1.206c-0.018,0-0.978-0.624-1.47-0.96
	c-0.15-0.102-0.402-0.27-0.57-0.372c-0.162-0.108-0.432-0.276-0.6-0.378c-0.552-0.354-0.72-0.432-1.02-0.51
	c-0.582-0.144-1.212-0.054-1.92,0.27c-0.318,0.15-0.732,0.54-3.588,3.384c-1.776,1.77-3.318,3.354-3.432,3.522
	c-0.21,0.312-0.45,1.104-0.45,1.476c0,0.108,0.054,0.396,0.114,0.63c0.102,0.402,0.276,0.684,2.01,3.282
	c1.044,1.56,1.896,2.898,1.896,2.97s-0.162,0.474-0.36,0.894c-0.204,0.42-0.426,0.894-0.504,1.062l-0.144,0.3l-0.588,0.138
	c-0.33,0.072-0.642,0.132-0.696,0.132c-0.06,0-0.33,0.054-0.6,0.114c-0.276,0.066-0.78,0.174-1.128,0.246
	c-0.348,0.072-0.846,0.18-1.11,0.24c-0.264,0.06-0.642,0.138-0.84,0.174c-1.974,0.36-2.538,0.696-3.036,1.806l-0.144,0.33v10.02
	l0.144,0.33c0.342,0.762,0.822,1.212,1.566,1.476c0.228,0.078,0.474,0.144,0.534,0.144c0.066,0,0.348,0.054,0.618,0.114
	c0.276,0.066,0.756,0.168,1.068,0.234c3.66,0.762,3.762,0.786,3.846,0.888c0.054,0.066,0.036,0.096-0.096,0.144
	c-0.084,0.03-0.21,0.06-0.276,0.06c-0.066,0-0.312,0.054-0.552,0.114c-2.556,0.678-7.205,1.416-9.852,1.566
	c-3.198,0.186-3.804,0.198-5.256,0.126c-2.424-0.114-3.612-0.192-3.864-0.246c-0.132-0.03-0.426-0.066-0.66-0.09
	c-0.63-0.054-2.028-0.264-2.658-0.396c-0.306-0.06-0.63-0.114-0.72-0.114c-0.096,0-0.372-0.048-0.618-0.108
	c-0.246-0.06-0.714-0.174-1.044-0.246c-0.756-0.174-1.44-0.348-1.98-0.498c-0.228-0.066-0.606-0.174-0.84-0.24
	c-0.228-0.066-0.702-0.216-1.05-0.33c-0.348-0.108-0.738-0.228-0.87-0.264c-0.126-0.03-0.264-0.084-0.3-0.114
	c-0.036-0.03-0.174-0.078-0.3-0.114c-0.288-0.072-0.672-0.216-1.968-0.732c-0.168-0.072-0.42-0.168-0.546-0.216
	c-0.132-0.048-0.444-0.18-0.69-0.294c-0.252-0.12-0.564-0.264-0.696-0.318c-0.414-0.186-0.834-0.384-0.96-0.444
	c-0.066-0.036-0.552-0.282-1.08-0.552c-0.528-0.264-1.428-0.756-1.998-1.08c-1.182-0.678-1.122-0.648-1.932-1.17
	c-0.33-0.216-0.648-0.42-0.702-0.45c-0.162-0.096-0.552-0.36-0.918-0.624c-0.18-0.132-0.546-0.39-0.81-0.576
	c-0.264-0.186-0.684-0.498-0.93-0.696c-0.246-0.192-0.654-0.51-0.9-0.696c-0.246-0.186-0.744-0.6-1.11-0.918
	c-0.36-0.312-0.81-0.696-0.99-0.852c-0.408-0.348-2.55-2.46-3.276-3.228c-0.6-0.642-1.704-1.92-2.154-2.496
	c-0.732-0.942-1.398-1.818-1.62-2.142c-0.132-0.186-0.342-0.486-0.468-0.66c-0.348-0.486-0.582-0.828-0.582-0.852
	c0-0.012-0.132-0.216-0.294-0.462c-0.57-0.858-0.57-0.858-1.356-2.22c-0.324-0.57-0.804-1.446-1.056-1.938
	c-0.588-1.146-0.618-1.206-0.762-1.53c-0.066-0.15-0.186-0.42-0.27-0.6c-0.15-0.336-0.348-0.786-0.492-1.11
	c-0.042-0.102-0.132-0.324-0.204-0.498c-0.072-0.168-0.18-0.456-0.252-0.63c-0.072-0.168-0.18-0.426-0.24-0.57
	c-0.06-0.138-0.114-0.288-0.114-0.33c0-0.036-0.042-0.15-0.09-0.246c-0.054-0.096-0.12-0.276-0.15-0.39
	c-0.03-0.12-0.204-0.678-0.39-1.236c-0.186-0.564-0.39-1.2-0.456-1.428c-0.06-0.222-0.168-0.582-0.228-0.81
	c-0.228-0.78-0.366-1.32-0.366-1.434c0-0.06-0.054-0.3-0.114-0.528c-0.186-0.69-0.366-1.5-0.366-1.668
	c0-0.09-0.054-0.408-0.114-0.714c-0.228-1.092-0.528-3.384-0.606-4.638c-0.156-2.442-0.186-3.81-0.12-5.316
	c0.09-2.148,0.162-3.216,0.27-4.044c0.222-1.656,0.348-2.49,0.456-3.042c0.06-0.318,0.114-0.642,0.114-0.714
	c0-0.12,0.102-0.606,0.36-1.674c0.06-0.246,0.168-0.708,0.246-1.02c0.072-0.312,0.186-0.744,0.246-0.96
	c0.066-0.216,0.168-0.564,0.228-0.78c0.06-0.216,0.264-0.852,0.45-1.41c0.186-0.564,0.36-1.122,0.396-1.247
	c0.03-0.127,0.084-0.27,0.114-0.33c0.03-0.054,0.096-0.21,0.144-0.342c0.048-0.132,0.138-0.384,0.21-0.558
	c0.306-0.762,0.372-0.929,0.486-1.224c0.066-0.168,0.144-0.336,0.18-0.372c0.03-0.03,0.06-0.096,0.06-0.138
	c0-0.042,0.108-0.317,0.246-0.606c0.132-0.288,0.294-0.631,0.354-0.762c0.336-0.756,1.242-2.484,1.902-3.63
	c0.57-0.996,0.81-1.379,1.344-2.178c0.132-0.192,0.234-0.359,0.234-0.372c0-0.012,0.084-0.144,0.18-0.282
	c0.102-0.144,0.252-0.354,0.33-0.468c0.078-0.114,0.24-0.348,0.36-0.509c0.114-0.168,0.258-0.366,0.318-0.45
	c0.282-0.42,1.806-2.382,1.998-2.58c0.048-0.048,0.402-0.456,0.78-0.9c0.714-0.828,2.573-2.748,3.594-3.696
	c0.738-0.684,2.046-1.812,2.688-2.303c1.05-0.816,1.704-1.308,2.328-1.74c0.348-0.246,0.744-0.522,0.876-0.618
	c0.126-0.09,0.246-0.162,0.258-0.162s0.18-0.102,0.372-0.235c1.47-0.984,2.712-1.692,5.358-3.035c0.546-0.282,0.66-0.33,0.708-0.33
	c0.036,0,0.402-0.162,0.816-0.361c0.42-0.198,0.792-0.359,0.834-0.359c0.042,0,0.174-0.054,0.3-0.12c0.12-0.066,0.258-0.12,0.3-0.12
	s0.174-0.054,0.3-0.12c0.12-0.066,0.258-0.12,0.3-0.12c0.042,0,0.174-0.054,0.3-0.12c0.12-0.066,0.258-0.12,0.294-0.12
	c0.042,0,0.156-0.042,0.252-0.091c0.096-0.054,0.276-0.12,0.39-0.15c0.222-0.053,0.36-0.102,1.476-0.492
	c0.366-0.126,0.702-0.228,0.756-0.228c0.048,0,0.252-0.048,0.45-0.114c1.302-0.408,3.618-0.966,4.704-1.14
	c3.294-0.516,3.888-0.594,5.19-0.672C52.674,5.109,53.766,5.085,55.41,5.163z M50.484,0.063c-0.072,0.072-1.068,0.174-1.674,0.18
	c-0.582,0-3.444,0.39-4.422,0.606c-0.288,0.06-0.612,0.114-0.72,0.114c-0.108,0-0.426,0.054-0.708,0.126
	c-0.282,0.066-0.75,0.174-1.05,0.241c-0.498,0.114-1.044,0.245-1.71,0.408c-0.15,0.036-0.456,0.12-0.69,0.186
	c-0.228,0.072-0.606,0.18-0.84,0.24c-0.726,0.204-1.17,0.342-2.13,0.666c-0.834,0.282-1.152,0.396-2.1,0.773
	c-0.15,0.06-0.366,0.144-0.48,0.18c-0.114,0.042-0.318,0.126-0.456,0.186c-0.138,0.066-0.276,0.114-0.318,0.114
	c-0.036,0-0.306,0.108-0.594,0.246c-0.582,0.27-0.948,0.438-1.302,0.599c-0.924,0.408-3.648,1.8-3.816,1.95
	c-0.048,0.049-0.114,0.084-0.132,0.084c-0.036,0-0.75,0.401-1.35,0.762c-0.12,0.072-0.264,0.156-0.312,0.18
	c-0.09,0.048-0.858,0.551-1.518,0.984c-0.192,0.132-0.366,0.234-0.396,0.234c-0.03,0-0.084,0.042-0.126,0.09
	c-0.042,0.048-0.294,0.234-0.564,0.42c-0.264,0.18-0.636,0.443-0.816,0.576c-0.18,0.132-0.396,0.282-0.48,0.342
	c-0.084,0.055-0.606,0.463-1.17,0.9c-1.728,1.362-3.162,2.628-4.764,4.218c-1.74,1.722-3.918,4.23-5.232,6.025
	c-0.792,1.092-1.35,1.871-1.464,2.057c-0.066,0.114-0.552,0.858-0.816,1.26c-0.096,0.144-0.174,0.276-0.174,0.294
	c0,0.023-0.042,0.09-0.102,0.15c-0.054,0.06-0.126,0.162-0.162,0.228c-0.036,0.06-0.42,0.732-0.846,1.482
	c-0.654,1.146-1.692,3.15-2.13,4.128c-0.06,0.132-0.174,0.39-0.258,0.57c-0.384,0.822-0.582,1.278-0.582,1.344
	c0,0.036-0.054,0.168-0.12,0.294c-0.066,0.12-0.12,0.257-0.12,0.3c0,0.042-0.054,0.174-0.12,0.3c-0.066,0.12-0.12,0.251-0.12,0.287
	c0,0.036-0.036,0.15-0.084,0.252c-0.138,0.312-0.54,1.422-0.636,1.752c-0.024,0.095-0.096,0.312-0.156,0.479
	c-0.27,0.769-0.324,0.93-0.444,1.38c-0.078,0.264-0.18,0.642-0.24,0.84c-0.288,0.984-0.408,1.458-0.714,2.82
	c-0.072,0.294-0.18,0.768-0.246,1.05c-0.066,0.282-0.12,0.588-0.12,0.678c0,0.09-0.048,0.402-0.114,0.69
	c-0.234,1.104-0.588,3.852-0.636,4.956c-0.024,0.474-0.072,0.942-0.12,1.08c-0.072,0.198-0.09,0.84-0.09,3.456
	c0,2.196,0.018,3.234,0.066,3.282c0.072,0.072,0.168,0.99,0.174,1.644c0,0.252,0.042,0.684,0.084,0.96
	c0.048,0.276,0.12,0.786,0.15,1.134c0.066,0.678,0.186,1.434,0.372,2.328c0.06,0.306,0.114,0.63,0.114,0.714
	c0,0.09,0.054,0.396,0.12,0.678c0.066,0.282,0.174,0.75,0.246,1.05c0.306,1.362,0.426,1.836,0.714,2.82
	c0.06,0.198,0.162,0.576,0.24,0.84c0.12,0.444,0.222,0.756,0.42,1.29c0.042,0.114,0.108,0.33,0.156,0.48
	c0.132,0.45,0.276,0.858,0.39,1.128c0.066,0.138,0.114,0.288,0.114,0.33c0,0.036,0.036,0.144,0.084,0.234
	c0.048,0.084,0.114,0.258,0.156,0.39c0.042,0.126,0.096,0.252,0.12,0.288c0.024,0.03,0.078,0.162,0.12,0.288
	c0.042,0.132,0.108,0.306,0.156,0.39c0.048,0.09,0.084,0.198,0.084,0.234c0,0.042,0.108,0.312,0.24,0.6
	c0.138,0.294,0.3,0.642,0.36,0.78c0.066,0.144,0.174,0.372,0.234,0.51c0.156,0.354,1.362,2.772,1.56,3.138
	c0.174,0.318,0.786,1.392,1.008,1.758c0.072,0.12,0.156,0.282,0.192,0.354c0.036,0.072,0.156,0.27,0.276,0.432
	c0.114,0.168,0.21,0.318,0.21,0.336c0,0.012,0.102,0.18,0.234,0.372c0.126,0.192,0.372,0.564,0.54,0.828
	c1.134,1.746,2.766,3.876,4.338,5.676c1.002,1.152,1.776,1.962,3.36,3.51c1.428,1.398,4.038,3.588,5.46,4.59
	c0.258,0.18,0.57,0.396,0.69,0.486c0.204,0.144,1.128,0.768,2.136,1.44c0.192,0.126,0.354,0.228,0.372,0.228
	c0.018,0,0.198,0.114,0.84,0.528c0.066,0.042,0.204,0.114,0.3,0.168c0.102,0.048,0.288,0.156,0.42,0.234
	c0.132,0.084,0.306,0.18,0.39,0.222c0.084,0.036,0.192,0.102,0.24,0.144c0.192,0.15,2.946,1.548,3.84,1.956
	c0.15,0.066,0.378,0.168,0.51,0.228c0.672,0.318,1.242,0.558,1.53,0.66c0.114,0.036,0.336,0.12,0.498,0.186
	c1.332,0.534,1.44,0.576,2.562,0.954c1.224,0.414,1.278,0.432,1.83,0.588c0.234,0.066,0.612,0.18,0.84,0.246
	c0.876,0.258,1.278,0.36,1.86,0.492c0.33,0.072,0.774,0.18,0.984,0.24c0.21,0.066,0.426,0.114,0.48,0.114
	c0.054,0,0.354,0.054,0.666,0.12c3.738,0.768,7.716,1.134,11.61,1.056c1.026-0.018,2.106-0.06,2.4-0.096
	c0.3-0.03,0.786-0.072,1.08-0.09c0.504-0.03,1.944-0.198,2.868-0.33c1.08-0.156,1.32-0.198,1.932-0.306
	c1.518-0.27,2.58-0.486,3.708-0.744c0.36-0.084,0.678-0.138,0.708-0.12c0.078,0.048,0.066,0.252-0.012,0.306
	c-0.036,0.018-0.108,0.126-0.156,0.228c-0.048,0.102-0.15,0.294-0.234,0.426c-0.078,0.132-0.186,0.318-0.234,0.42
	c-0.054,0.096-0.18,0.312-0.282,0.48c-0.45,0.726-0.462,1.614-0.036,2.55c0.168,0.36,0.432,0.648,3.516,3.726
	c3.708,3.708,3.552,3.576,4.5,3.708c0.546,0.072,1.152-0.012,1.506-0.21c0.108-0.066,1.434-0.93,2.94-1.932
	c2.352-1.566,2.76-1.818,2.904-1.788c0.09,0.018,0.498,0.192,0.9,0.39c0.402,0.192,0.816,0.384,0.924,0.426
	c0.342,0.126,0.348,0.144,0.738,2.04c0.072,0.348,0.18,0.858,0.24,1.14c0.06,0.282,0.168,0.792,0.24,1.14
	c0.072,0.348,0.179,0.858,0.24,1.14c0.06,0.282,0.126,0.6,0.144,0.714c0.15,0.87,0.816,1.74,1.482,1.926
	c0.121,0.036,0.252,0.102,0.294,0.15c0.066,0.078,0.727,0.09,5.16,0.09c4.434,0,5.094-0.012,5.16-0.09
	c0.042-0.048,0.174-0.114,0.293-0.15c0.666-0.186,1.332-1.056,1.482-1.926c0.018-0.114,0.084-0.432,0.144-0.714
	c0.06-0.282,0.168-0.792,0.24-1.14c0.072-0.348,0.18-0.858,0.239-1.14c0.06-0.282,0.168-0.78,0.234-1.11
	c0.066-0.33,0.187-0.882,0.265-1.23l0.137-0.63l0.264-0.132c0.15-0.072,0.433-0.186,0.63-0.258c0.469-0.174,0.846-0.354,1.104-0.522
	c0.115-0.078,0.235-0.138,0.276-0.138c0.042,0,0.498,0.282,1.02,0.63c0.516,0.348,0.954,0.63,0.966,0.63
	c0.018,0,0.174,0.108,0.354,0.24c0.18,0.132,0.342,0.24,0.361,0.24c0.018,0,0.179,0.108,0.359,0.24c0.18,0.132,0.342,0.24,0.36,0.24
	c0.018,0,0.174,0.102,0.348,0.222c0.174,0.126,0.36,0.252,0.414,0.288c0.055,0.03,0.378,0.246,0.72,0.48
	c0.834,0.564,0.978,0.636,1.428,0.726c0.553,0.108,1.158,0.018,1.74-0.258c0.432-0.204,0.588-0.354,3.738-3.492
	c2.465-2.454,3.33-3.354,3.443-3.576c0.307-0.594,0.396-1.35,0.235-2.022c-0.066-0.27-0.258-0.606-0.835-1.488
	c-0.413-0.624-0.821-1.236-0.912-1.362c-0.912-1.314-2.129-3.228-2.129-3.354c0-0.078,0.156-0.48,0.348-0.882
	c0.192-0.402,0.402-0.852,0.462-0.996c0.144-0.324,0.241-0.384,0.87-0.51c0.282-0.06,0.738-0.156,1.02-0.216
	c0.499-0.108,1.188-0.252,2.341-0.486c0.312-0.066,0.798-0.174,1.079-0.24c0.283-0.066,0.564-0.114,0.63-0.114
	c0.414,0,1.578-0.564,1.674-0.816c0.018-0.048,0.072-0.084,0.126-0.084c0.078,0,0.09-0.624,0.09-5.73c0-5.052-0.012-5.73-0.09-5.73
	c-0.048,0-0.09-0.024-0.09-0.054c0-0.096-0.528-0.594-0.852-0.804c-0.378-0.246-0.87-0.408-1.728-0.582
	c-0.348-0.072-0.87-0.18-1.17-0.24c-1.236-0.258-1.71-0.36-2.28-0.48c-1.2-0.246-1.8-0.372-1.872-0.396
	c-0.084-0.024-0.221-0.312-0.437-0.894c-0.132-0.36-0.324-0.768-0.546-1.17c-0.137-0.252-0.126-0.312,0.264-0.876
	c0.174-0.252,0.342-0.498,0.372-0.552c0.036-0.06,0.144-0.222,0.241-0.366c0.101-0.144,0.209-0.306,0.239-0.36
	c0.036-0.054,0.144-0.216,0.24-0.36c0.102-0.144,0.21-0.306,0.24-0.36c0.036-0.054,0.144-0.216,0.24-0.36
	c0.102-0.144,0.21-0.306,0.24-0.36c0.036-0.054,0.144-0.216,0.24-0.36c0.102-0.144,0.209-0.306,0.24-0.36
	c0.036-0.054,0.144-0.216,0.241-0.36c0.101-0.144,0.209-0.306,0.239-0.36c0.036-0.054,0.156-0.246,0.277-0.426
	c0.395-0.6,0.462-0.744,0.527-1.152c0.127-0.756-0.107-1.596-0.648-2.292c-0.132-0.168-1.626-1.686-3.318-3.372
	c-3.325-3.312-3.276-3.264-4.134-3.468c-0.492-0.12-0.642-0.12-1.128,0c-0.426,0.108-0.726,0.264-1.314,0.684
	c-0.21,0.15-0.444,0.306-0.51,0.354c-0.071,0.048-0.246,0.18-0.384,0.288c-0.462,0.366-0.474,0.288-0.144-1.044
	c0.756-3.048,1.146-5.79,1.386-9.678c0.15-2.358,0.012-6.306-0.306-8.88c-0.066-0.546-0.132-1.11-0.15-1.26
	c-0.078-0.75-0.552-3.408-0.756-4.23c-0.03-0.132-0.084-0.36-0.12-0.51c-0.15-0.684-0.306-1.32-0.402-1.68
	c-0.066-0.216-0.174-0.606-0.245-0.87c-0.355-1.248-0.379-1.332-0.66-2.129c-0.042-0.115-0.108-0.33-0.156-0.48
	c-0.042-0.15-0.162-0.498-0.264-0.78c-0.102-0.281-0.21-0.594-0.24-0.69c-0.036-0.102-0.095-0.264-0.143-0.36
	c-0.054-0.102-0.162-0.372-0.246-0.6c-0.09-0.234-0.198-0.503-0.246-0.612c-0.048-0.102-0.084-0.216-0.084-0.258
	c0-0.042-0.036-0.144-0.084-0.228c-0.048-0.09-0.156-0.324-0.246-0.522c-0.085-0.198-0.21-0.474-0.276-0.618
	c-0.06-0.138-0.168-0.366-0.228-0.51c-0.372-0.822-1.8-3.629-1.932-3.798c-0.03-0.036-0.138-0.222-0.24-0.42
	c-0.102-0.192-0.222-0.396-0.257-0.444c-0.043-0.048-0.108-0.156-0.144-0.24c-0.079-0.15-0.114-0.21-0.366-0.63
	c-0.156-0.258-0.864-1.35-1.32-2.04c-0.283-0.432-0.852-1.242-1.452-2.058c-0.714-0.972-2.418-3.042-3.318-4.032
	c-0.45-0.498-1.836-1.908-2.772-2.82c-0.707-0.69-1.218-1.146-2.718-2.436c-0.438-0.372-2.208-1.752-2.646-2.058
	c-0.246-0.174-0.6-0.42-0.78-0.552c-0.18-0.132-0.72-0.498-1.2-0.815c-0.48-0.313-0.942-0.624-1.032-0.684
	c-0.09-0.066-0.18-0.114-0.198-0.114c-0.018,0-0.162-0.091-0.318-0.199c-0.156-0.108-0.876-0.534-1.602-0.948
	c-1.962-1.11-4.458-2.328-6.282-3.06c-0.162-0.06-0.414-0.168-0.57-0.228c-0.366-0.15-1.266-0.48-1.95-0.721
	c-0.174-0.06-0.414-0.143-0.528-0.185c-0.114-0.042-0.318-0.108-0.45-0.144c-0.132-0.036-0.36-0.114-0.51-0.162
	c-0.384-0.138-1.122-0.354-2.43-0.713c-0.264-0.072-0.624-0.168-0.798-0.216c-0.174-0.054-0.444-0.114-0.6-0.144
	c-0.156-0.024-0.456-0.09-0.672-0.138c-0.672-0.156-1.5-0.324-2.25-0.456c-0.396-0.066-0.948-0.162-1.23-0.216
	c-0.282-0.048-0.792-0.114-1.14-0.144c-0.348-0.035-0.87-0.102-1.164-0.156c-0.294-0.048-0.738-0.09-0.99-0.09
	c-0.612,0-1.578-0.108-1.65-0.18C57.054,0.021,55.422,0,53.79,0S50.526,0.021,50.484,0.063z"/>
<path style="fill:#39404B;" d="M52.806,11.439c-0.582,0.222-0.906,0.486-1.248,1.007c-0.342,0.529-0.348,0.595-0.348,4.386
	c0,3.78,0,3.774,0.342,4.386c0.6,1.074,1.848,1.554,3.078,1.17c0.522-0.162,0.936-0.467,1.242-0.918
	c0.432-0.63,0.426-0.583,0.45-4.333c0.03-4.092,0.012-4.247-0.576-5.004C55.146,11.379,53.796,11.055,52.806,11.439"/>
<path style="fill:#39404B;" d="M24.817,23.192c-1.026,0.366-1.776,1.392-1.776,2.43c0,0.384,0.198,1.002,0.426,1.338
	c0.204,0.293,4.668,4.77,4.974,4.979c0.864,0.606,1.878,0.72,2.64,0.294c0.402-0.222,0.948-0.774,1.14-1.152
	c0.222-0.432,0.318-1.074,0.24-1.536c-0.132-0.75-0.192-0.828-2.784-3.432c-1.326-1.332-2.52-2.502-2.652-2.592
	C26.347,23.048,25.555,22.928,24.817,23.192"/>
<path style="fill:#39404B;" d="M81.131,23.187c-0.204,0.084-0.486,0.228-0.63,0.33c-0.138,0.096-1.332,1.266-2.658,2.598
	c-1.956,1.968-2.43,2.478-2.562,2.748c-0.48,1.002-0.264,2.142,0.558,2.898c0.624,0.577,1.38,0.816,2.184,0.696
	c0.24-0.036,0.546-0.132,0.696-0.222c0.33-0.186,5.094-4.908,5.34-5.292c0.24-0.378,0.42-0.954,0.42-1.35
	c0-0.708-0.45-1.56-1.074-2.021c-0.426-0.319-0.852-0.475-1.416-0.505C81.581,23.042,81.455,23.061,81.131,23.187"/>
<path style="fill:#39404B;" d="M54.81,50.084c1.32,0.48,2.208,1.38,2.628,2.658c0.186,0.552,0.186,1.56,0,2.07
	c-0.492,1.374-1.446,2.268-2.832,2.676c-0.366,0.108-0.534,0.126-0.99,0.096c-1.62-0.102-2.952-1.14-3.528-2.754
	c-0.192-0.54-0.198-1.596-0.006-2.118c0.516-1.422,1.566-2.37,3.048-2.754C53.394,49.892,54.51,49.976,54.81,50.084 M53.43,27.404
	c-0.336,0.049-0.924,0.252-1.158,0.402c-0.39,0.246-0.798,0.804-0.96,1.314c-0.084,0.283-0.096,1.141-0.114,8.244l-0.018,7.932
	l-0.498,0.186c-1.518,0.576-2.718,1.398-3.69,2.514c-0.642,0.75-0.852,1.068-1.296,1.968c-0.372,0.756-0.45,0.96-0.69,1.908
	c-0.24,0.936-0.222,2.97,0.03,3.858c0.486,1.734,1.122,2.928,2.094,3.966c0.744,0.792,0.972,0.99,1.8,1.548
	c0.354,0.246,0.426,0.282,1.05,0.594c0.312,0.156,0.654,0.3,0.75,0.33c0.102,0.024,0.3,0.084,0.45,0.138
	c0.954,0.318,1.884,0.426,3.15,0.372c2.154-0.096,4.128-0.96,5.634-2.466c0.972-0.972,1.548-1.908,2.106-3.432l0.162-0.438
	l7.926-0.018c8.862-0.018,8.238,0.012,8.91-0.45c0.678-0.462,1.056-1.218,1.05-2.106c0-0.912-0.372-1.656-1.05-2.118
	c-0.672-0.462-0.048-0.432-8.91-0.45l-7.926-0.018l-0.162-0.438c-0.228-0.606-0.612-1.386-0.894-1.812
	c-0.264-0.396-0.942-1.248-1.146-1.44c-0.36-0.342-1.008-0.864-1.38-1.104c-0.444-0.288-1.386-0.786-1.482-0.786
	c-0.036,0-0.144-0.036-0.246-0.084c-0.108-0.042-0.282-0.114-0.384-0.156L56.34,45.29l-0.018-7.932
	c-0.018-8.855,0.012-8.232-0.45-8.904c-0.3-0.443-0.714-0.756-1.206-0.906C54.246,27.423,53.73,27.362,53.43,27.404z"/>
<path style="fill:#39404B;" d="M13.172,51.296c-1.176,0.252-1.89,1.188-1.89,2.466c0,1.326,0.732,2.244,1.986,2.484
	c0.45,0.09,0.917,0.096,3.87,0.078c3.6-0.024,3.636-0.024,4.194-0.342c0.756-0.432,1.188-1.236,1.182-2.19
	c0-0.948-0.468-1.776-1.248-2.214c-0.648-0.372-0.528-0.36-4.224-0.372C14,51.188,13.603,51.2,13.172,51.296"/>
<path style="fill:#39404B;" d="M87.269,51.212c-0.03,0.006-0.222,0.048-0.42,0.09c-0.564,0.12-1.164,0.528-1.446,0.972
	c-0.24,0.378-0.401,0.978-0.401,1.494c0.006,1.17,0.786,2.154,1.962,2.46c0.389,0.102,0.714,0.114,3.636,0.114
	c2.862,0,3.263-0.012,3.72-0.108c1.2-0.258,1.92-1.182,1.92-2.472c0-1.296-0.714-2.214-1.92-2.472
	c-0.457-0.096-0.852-0.108-3.75-0.102C88.788,51.188,87.305,51.2,87.269,51.212"/>
<path style="fill:#39404B;" d="M29.371,75.085c-0.252,0.042-0.516,0.132-0.66,0.228c-0.27,0.174-5.034,4.95-5.244,5.25
	c-0.228,0.336-0.426,0.954-0.426,1.338c0,0.486,0.228,1.122,0.54,1.518c0.468,0.582,1.38,1.062,2.022,1.062
	c0.336,0,0.954-0.21,1.338-0.444c0.15-0.096,1.368-1.266,2.706-2.61c2.634-2.634,2.664-2.67,2.808-3.45
	c0.084-0.462-0.012-1.092-0.234-1.542c-0.204-0.402-0.756-0.93-1.206-1.146c-0.27-0.138-0.978-0.306-1.17-0.282
	C29.815,75.013,29.605,75.049,29.371,75.085"/>
<path style="fill:#39404B;" d="M53.43,85.003c-0.336,0.048-0.924,0.252-1.158,0.402c-0.132,0.084-0.33,0.264-0.444,0.408
	c-0.624,0.786-0.606,0.642-0.63,4.572c-0.03,4.074-0.006,4.284,0.57,4.986c0.648,0.786,1.92,1.098,2.934,0.72
	c0.858-0.324,1.338-0.882,1.53-1.77c0.096-0.456,0.108-0.858,0.108-3.72c0-2.94-0.012-3.246-0.114-3.63
	c-0.24-0.912-0.786-1.518-1.644-1.824C54.252,85.027,53.73,84.961,53.43,85.003"/>
<path style="fill:#39404B;" d="M93.599,84.439c1.493,0.396,2.46,0.948,3.588,2.046c1.188,1.158,1.896,2.43,2.244,4.026
	c0.18,0.81,0.174,1.974,0,2.802c-0.121,0.558-0.318,1.206-0.432,1.416c-0.024,0.054-0.138,0.276-0.246,0.492
	c-0.726,1.476-2.058,2.808-3.534,3.54c-0.216,0.102-0.438,0.216-0.492,0.24c-0.204,0.114-0.858,0.312-1.416,0.432
	c-0.432,0.096-0.798,0.126-1.422,0.132c-2.009,0.006-3.798-0.72-5.298-2.148c-0.336-0.317-1.043-1.188-1.224-1.5
	c-0.174-0.312-0.648-1.278-0.648-1.332c0-0.03-0.054-0.186-0.113-0.354c-0.246-0.636-0.337-1.272-0.337-2.34
	c0-1.062,0.091-1.68,0.33-2.34c0.06-0.168,0.127-0.354,0.144-0.426c0.036-0.114,0.372-0.774,0.678-1.32
	c0.222-0.396,0.984-1.29,1.41-1.65c1.001-0.84,2.256-1.488,3.287-1.704c0.114-0.024,0.36-0.084,0.54-0.126
	c0.234-0.054,0.63-0.072,1.35-0.06C92.855,84.289,93.125,84.319,93.599,84.439 M90.881,78.907c-0.774,0.054-1.943,0.264-2.435,0.438
	c-0.144,0.054-0.319,0.096-0.391,0.096s-0.186,0.036-0.252,0.084c-0.066,0.048-0.24,0.114-0.384,0.156
	c-0.27,0.072-1.668,0.738-2.009,0.96c-0.096,0.066-0.258,0.162-0.36,0.216c-0.096,0.054-0.366,0.24-0.589,0.408
	c-0.221,0.168-0.504,0.384-0.629,0.474c-0.306,0.234-1.512,1.428-1.776,1.77c-0.708,0.906-0.948,1.266-1.464,2.19
	c-0.204,0.366-0.672,1.428-0.672,1.524c0,0.048-0.042,0.168-0.096,0.276c-0.114,0.216-0.204,0.528-0.456,1.662
	c-0.18,0.792-0.186,0.846-0.186,2.43c0,1.524,0.006,1.668,0.156,2.37c0.084,0.414,0.198,0.87,0.246,1.014
	c0.055,0.144,0.096,0.306,0.096,0.36c0.006,0.054,0.054,0.204,0.12,0.336c0.066,0.132,0.114,0.276,0.12,0.324
	c0,0.048,0.054,0.192,0.114,0.33c0.252,0.546,0.738,1.518,0.846,1.686c0.066,0.096,0.162,0.258,0.216,0.36
	c0.27,0.474,1.164,1.572,1.83,2.244c0.738,0.738,1.493,1.35,2.304,1.86c0.492,0.306,1.752,0.966,1.854,0.966
	c0.036,0,0.168,0.054,0.294,0.12c0.12,0.066,0.258,0.12,0.294,0.12c0.042,0.006,0.186,0.054,0.317,0.12
	c0.132,0.066,0.313,0.114,0.397,0.12c0.084,0,0.312,0.054,0.51,0.114c0.192,0.066,0.671,0.174,1.062,0.246
	c0.996,0.18,2.915,0.18,3.893,0c1.536-0.282,2.388-0.564,3.738-1.236c0.437-0.222,0.624-0.33,1.259-0.738
	c1.362-0.876,3.192-2.754,3.894-4.002c0.054-0.096,0.15-0.258,0.216-0.354c0.144-0.234,0.665-1.296,0.821-1.68
	c0.265-0.654,0.378-0.966,0.378-1.056c0-0.048,0.054-0.252,0.114-0.45c0.276-0.852,0.379-1.722,0.379-3.114
	c0-1.644-0.138-2.52-0.655-4.038c-0.203-0.618-0.75-1.806-1.025-2.244c-0.054-0.084-0.186-0.3-0.288-0.48
	c-0.294-0.492-1.014-1.398-1.608-2.016c-0.516-0.534-1.374-1.302-1.674-1.506c-0.084-0.054-0.336-0.222-0.558-0.372
	c-0.708-0.468-1.506-0.894-2.214-1.176c-0.162-0.072-0.431-0.18-0.6-0.246C94.727,79.051,92.663,78.781,90.881,78.907z"/>
</svg>
