<?xml version="1.0" encoding="iso-8859-1"?>
<!-- Generator: Adobe Illustrator 27.0.1, SVG Export Plug-In . SVG Version: 6.00 Build 0)  -->
<svg version="1.1" id="&#x421;&#x43B;&#x43E;&#x439;_1"
	 xmlns="http://www.w3.org/2000/svg" xmlns:xlink="http://www.w3.org/1999/xlink" x="0px" y="0px" viewBox="0 0 122.88 122.88"
	 style="enable-background:new 0 0 122.88 122.88;" xml:space="preserve">
<path style="fill-rule:evenodd;clip-rule:evenodd;fill:#39404B;" d="M41.565,55.554h7.927V40.648h2.545l-3.255-3.984l-3.254-3.984
	l-3.254,3.984l-3.255,3.984h2.545V55.554z M111.293,52.489l-3.299-0.017c-0.04,0-0.073,0.02-0.113,0.023
	c-0.142,0.014-0.273,0.04-0.398,0.081l0.012-0.003c-0.473,0.104-0.862,0.402-1.085,0.805l-0.005,0.008
	c-0.073,0.108-0.139,0.232-0.189,0.363l-0.005,0.012c-0.012,0.037-0.041,0.063-0.052,0.101c-0.351,1.228-0.804,2.296-1.37,3.291
	l0.038-0.073c-0.021,0.038-0.02,0.082-0.04,0.122c-0.044,0.096-0.081,0.211-0.108,0.328l-0.001,0.012
	c-0.035,0.11-0.061,0.238-0.073,0.37v0.008c-0.003,0.041-0.006,0.089-0.006,0.136c0,0.319,0.093,0.617,0.253,0.867l-0.005-0.006
	c0.069,0.135,0.146,0.249,0.235,0.355l-0.001-0.003c0.026,0.029,0.033,0.066,0.061,0.093l2.333,2.339l-3.768,3.768l-2.313-2.335
	c-0.031-0.032-0.073-0.041-0.105-0.07c-0.091-0.076-0.195-0.147-0.305-0.206l-0.009-0.005c-0.298-0.166-0.654-0.264-1.033-0.264
	c-0.003,0-0.006,0-0.009,0c-0.116,0.012-0.221,0.034-0.322,0.061l0.014-0.003c-0.156,0.031-0.293,0.076-0.421,0.136l0.011-0.004
	c-0.033,0.017-0.072,0.015-0.105,0.034c-0.925,0.528-1.994,0.984-3.117,1.312l-0.107,0.026c-0.041,0.012-0.069,0.041-0.108,0.056
	c-0.128,0.05-0.24,0.108-0.342,0.177l0.006-0.005c-0.114,0.063-0.212,0.13-0.304,0.206l0.003-0.003
	c-0.081,0.08-0.156,0.168-0.221,0.261l-0.005,0.006c-0.157,0.173-0.268,0.388-0.314,0.628l-0.001,0.008
	c-0.036,0.113-0.065,0.244-0.078,0.38v0.008c-0.003,0.04-0.023,0.073-0.023,0.115l-0.001,3.302l-5.327,0l0.017-3.293
	c0-0.043-0.021-0.079-0.024-0.121c-0.012-0.141-0.04-0.27-0.079-0.394l0.003,0.012c-0.104-0.478-0.405-0.87-0.81-1.095l-0.009-0.005
	c-0.107-0.072-0.229-0.136-0.359-0.187l-0.012-0.005c-0.037-0.012-0.064-0.041-0.102-0.052c-1.23-0.351-2.299-0.806-3.298-1.375
	l0.073,0.038c-0.035-0.02-0.076-0.018-0.111-0.035c-0.11-0.05-0.238-0.093-0.372-0.121l-0.012-0.002
	c-0.14-0.044-0.302-0.069-0.47-0.069c-0.337,0-0.65,0.101-0.911,0.275l0.006-0.003c-0.116,0.061-0.215,0.128-0.306,0.205
	l0.003-0.003c-0.032,0.029-0.073,0.038-0.104,0.069l-2.333,2.335l-3.769-3.771l2.338-2.315c0.031-0.031,0.041-0.072,0.069-0.102
	c0.081-0.096,0.154-0.205,0.216-0.319l0.005-0.009c0.056-0.089,0.108-0.189,0.151-0.296l0.005-0.012
	c0.058-0.214,0.094-0.46,0.101-0.713v-0.005c-0.012-0.127-0.035-0.242-0.067-0.353l0.003,0.014c-0.031-0.143-0.072-0.27-0.127-0.389
	l0.005,0.011c-0.018-0.038-0.017-0.079-0.038-0.116c-0.529-0.924-0.984-1.993-1.309-3.117l-0.026-0.104
	c-0.011-0.04-0.041-0.069-0.055-0.107c-0.052-0.131-0.11-0.244-0.18-0.348l0.005,0.008c-0.061-0.113-0.128-0.211-0.203-0.301
	l0.003,0.003c-0.079-0.081-0.166-0.154-0.258-0.22l-0.006-0.005c-0.092-0.078-0.195-0.148-0.305-0.208l-0.009-0.005
	c-0.087-0.04-0.193-0.075-0.299-0.101l-0.012-0.003c-0.117-0.04-0.255-0.069-0.395-0.081h-0.008
	c-0.04-0.003-0.072-0.023-0.111-0.023l-3.299-0.001v-5.333l3.299,0.017c0.244-0.003,0.474-0.054,0.687-0.141l-0.012,0.005
	c0.082-0.037,0.151-0.073,0.217-0.115l-0.008,0.005c0.137-0.072,0.256-0.152,0.365-0.244l-0.003,0.002
	c0.066-0.06,0.125-0.121,0.18-0.187l0.003-0.003c0.085-0.099,0.162-0.211,0.224-0.328l0.005-0.011
	c0.041-0.072,0.082-0.156,0.116-0.243l0.005-0.012c0.015-0.043,0.044-0.077,0.056-0.119c0.351-1.229,0.804-2.3,1.372-3.297
	l-0.038,0.073c0.021-0.037,0.02-0.079,0.038-0.116c0.047-0.102,0.087-0.225,0.114-0.35l0.002-0.012
	c0.03-0.132,0.049-0.283,0.049-0.438c0-0.484-0.172-0.927-0.458-1.274l0.003,0.003c-0.026-0.031-0.035-0.069-0.064-0.096
	l-2.33-2.335l3.767-3.771l2.316,2.338c0.084,0.069,0.177,0.133,0.275,0.186l0.009,0.005c0.064,0.05,0.136,0.099,0.21,0.144
	l0.009,0.005c0.244,0.134,0.534,0.217,0.841,0.226h0.003l0.008,0.002c0.018,0,0.035-0.014,0.052-0.014
	c0.284-0.012,0.548-0.086,0.783-0.206l-0.011,0.005c0.034-0.017,0.072-0.009,0.107-0.028c0.923-0.528,1.991-0.985,3.114-1.311
	l0.105-0.026c0.038-0.011,0.064-0.04,0.101-0.052c0.139-0.053,0.259-0.116,0.371-0.191l-0.006,0.005
	c0.105-0.058,0.195-0.121,0.279-0.189l-0.003,0.003c0.089-0.085,0.168-0.178,0.238-0.279l0.005-0.006
	c0.07-0.086,0.136-0.182,0.192-0.283l0.005-0.009c0.043-0.095,0.081-0.206,0.107-0.321l0.003-0.012
	c0.037-0.111,0.064-0.241,0.076-0.377v-0.008c0.003-0.041,0.023-0.075,0.023-0.116l0.002-3.302h5.327l-0.017,3.293
	c0,0.043,0.021,0.078,0.023,0.121c0.012,0.142,0.04,0.272,0.079,0.397l-0.003-0.012c0.029,0.128,0.067,0.24,0.114,0.347
	l-0.005-0.012c0.061,0.111,0.125,0.208,0.198,0.296l-0.003-0.003c0.073,0.107,0.154,0.2,0.241,0.286
	c0.081,0.067,0.171,0.128,0.266,0.183l0.009,0.005c0.104,0.07,0.224,0.133,0.351,0.182l0.012,0.005
	c0.038,0.014,0.066,0.043,0.105,0.053c1.227,0.35,2.293,0.805,3.288,1.373l-0.072-0.038c0.034,0.018,0.07,0.011,0.104,0.028
	c0.224,0.116,0.488,0.189,0.767,0.201h0.005c0.018,0,0.036,0.014,0.055,0.014l0.043-0.012c0.295-0.012,0.568-0.09,0.81-0.218
	l-0.011,0.005c0.09-0.05,0.166-0.101,0.238-0.159l-0.005,0.003c0.104-0.056,0.194-0.116,0.276-0.183l-0.003,0.003l2.336-2.334
	l3.767,3.773l-2.336,2.315c-0.031,0.031-0.041,0.072-0.07,0.104c-0.081,0.096-0.154,0.205-0.217,0.319l-0.005,0.009
	c-0.128,0.188-0.21,0.416-0.226,0.663v0.003c-0.02,0.086-0.031,0.185-0.031,0.286c0,0.148,0.024,0.29,0.069,0.423l-0.003-0.009
	c0.03,0.143,0.072,0.269,0.127,0.388l-0.005-0.01c0.019,0.038,0.017,0.081,0.038,0.119c0.53,0.922,0.984,1.99,1.309,3.113
	l0.026,0.104c0.012,0.046,0.043,0.079,0.058,0.122c0.037,0.095,0.075,0.173,0.118,0.249l-0.005-0.009
	c0.322,0.606,0.945,1.016,1.663,1.029h0.001l3.299,0.001L111.293,52.489z M91.839,39.384c-5.756,0-10.424,4.672-10.424,10.434
	c0,5.762,4.668,10.434,10.424,10.434c5.756,0,10.424-4.673,10.424-10.434C102.255,44.058,97.593,39.392,91.839,39.384z
	 M91.839,55.283c-3.016,0-5.46-2.446-5.46-5.465c0-3.019,2.444-5.465,5.46-5.465c3.016,0,5.46,2.447,5.46,5.465
	C97.295,52.835,94.852,55.279,91.839,55.283z M59.306,51.511h9.264v1.73c0.09,1.709,1.498,3.062,3.221,3.062
	c0.075,0,0.15-0.003,0.223-0.008h-0.011l2.327,0c0.166,0.45,0.349,0.892,0.551,1.329l-1.654,1.636c-0.676,0.596-1.1,1.463-1.1,2.431
	c0,0.693,0.218,1.336,0.589,1.862h-13.41V51.511z M35.714,51.511h1.969v4.043c0,2.146,1.738,3.886,3.882,3.886h7.927
	c2.144,0,3.882-1.74,3.882-3.886v-4.043h1.969v12.044h-19.63V51.511z M12.121,51.511h19.63v12.044h-19.63V51.511z M83.239,67.59
	h2.13l-0.01,2.08c-0.005,0.064-0.008,0.139-0.008,0.214c0,1.723,1.351,3.131,3.049,3.223h0.008h6.86
	c1.706-0.092,3.056-1.498,3.056-3.221c0-0.076-0.003-0.151-0.008-0.225v0.011V67.59h2.124l0.838,0.846
	c0.351,0.361,0.776,0.65,1.25,0.842v6.112h-19.63V67.93L83.239,67.59z M59.306,67.59h17.381l1.119,1.12
	c0.314,0.312,0.699,0.552,1.13,0.692v5.988h-19.63V67.59z M35.714,67.59h19.63v7.8h-19.63V67.59z M12.121,67.59h19.63v7.8h-19.63
	V67.59z M82.899,79.423h19.63v7.8h-19.63V79.423z M59.306,79.423h19.63v7.8h-19.63V79.423z M35.714,79.423h19.63v7.8h-19.63V79.423z
	 M12.121,79.423h19.63v7.8h-19.63V79.423z M82.899,91.257h19.63v7.8h-19.63V91.257z M59.306,91.257h19.63v7.8h-19.63V91.257z
	 M35.714,91.257h19.63v7.8h-19.63V91.257z M12.121,91.257h19.63v7.8h-19.63V91.257z M82.899,103.091h19.63v7.8h-19.63V103.091z
	 M59.306,103.091h19.63v7.8h-19.63V103.091z M35.714,103.091h19.63v7.8h-19.63V103.091z M12.121,103.091h19.63v7.8h-19.63V103.091z
	 M10.095,47.47h27.588v-3.175c-0.396-0.145-0.775-0.358-1.12-0.641c-1.658-1.358-1.903-3.804-0.546-5.464l6.468-7.918
	c0.17-0.215,0.366-0.415,0.587-0.596c1.658-1.358,4.102-1.113,5.459,0.547l6.423,7.862c0.601,0.684,0.965,1.581,0.965,2.564
	c0,1.676-1.06,3.104-2.545,3.649v3.172h15.196v-1.093v-0.008c0.092-1.7,1.498-3.051,3.22-3.051c0.075,0,0.149,0.003,0.214,0.008
	l2.327,0.011c0.168-0.452,0.351-0.894,0.552-1.332l-1.645-1.648l-0.003-0.003c-0.673-0.591-1.097-1.457-1.097-2.424
	c0-0.833,0.314-1.592,0.83-2.161l4.851-4.855l-0.003,0.003c0.571-0.518,1.329-0.833,2.161-0.833c0.964,0,1.831,0.426,2.425,1.103
	l1.639,1.656c0.436-0.201,0.877-0.385,1.327-0.551v-2.328v0.011c-0.005-0.075-0.008-0.15-0.008-0.225
	c0-1.724,1.35-3.133,3.058-3.223h6.86h0.008c1.698,0.092,3.047,1.498,3.047,3.221c0,0.076-0.003,0.151-0.008,0.215l-0.012,2.331
	c0.45,0.166,0.89,0.35,1.324,0.55l1.649-1.649l0.003-0.003c0.592-0.672,1.457-1.096,2.421-1.096c0.832,0,1.59,0.315,2.159,0.831
	l4.849,4.854l-0.003-0.003c0.517,0.573,0.831,1.332,0.831,2.164c0,0.964-0.421,1.83-1.094,2.424l-1.659,1.644
	c0.201,0.437,0.384,0.878,0.551,1.329h2.328l-0.003-0.001h-0.01c0.075-0.005,0.149-0.008,0.224-0.008
	c1.723,0,3.128,1.352,3.22,3.061v6.865v0.008c-0.09,1.701-1.497,3.053-3.22,3.053c-0.075,0-0.148-0.003-0.212-0.008l-2.327-0.011
	c-0.166,0.45-0.35,0.89-0.549,1.326l1.648,1.651h0.002c0.661,0.645,1.076,1.538,1.096,2.532v-0.002c0,0.015,0,0.029,0,0.043
	c0,0.787-0.314,1.498-0.825,2.016l-4.15,4.154v44.956c0,1.107-0.905,2.013-2.011,2.013h-94.46c-1.106,0-2.011-0.906-2.011-2.013
	V49.483C8.084,48.376,8.989,47.47,10.095,47.47z M59.277,11.972h57.041c1.389,0,2.525,1.137,2.525,2.527v5.24H60.897
	c-0.891,0-1.62-0.73-1.62-1.622V11.972z M35.829,12.124h11.696v7.611H35.829V12.124z M32.998,8.082h17.359
	c0.663,0,1.206,0.543,1.206,1.207v13.279c0,0.664-0.543,1.207-1.206,1.207H32.998c-0.663,0-1.206-0.543-1.206-1.207V9.29
	C31.792,8.625,32.334,8.082,32.998,8.082z M29.732,4.041h23.891c1.087,0,1.977,0.89,1.977,1.979v13.304
	c0.18,2.482,2.265,4.456,4.788,4.456h58.455v92.531c0,1.39-1.136,2.527-2.525,2.527H6.562c-1.389,0-2.525-1.137-2.525-2.527V23.781
	h18.947c2.46,0,4.504-1.878,4.771-4.273V6.02C27.755,4.932,28.644,4.041,29.732,4.041z M6.562,11.972h17.185v6.146
	c0,0.892-0.729,1.622-1.621,1.622H4.037v-5.24C4.037,13.109,5.174,11.972,6.562,11.972z M59.637,7.931h56.68
	c3.617,0,6.562,2.948,6.562,6.568v101.812c0,3.62-2.945,6.568-6.562,6.568H6.562c-3.617,0-6.562-2.948-6.562-6.568V14.499
	c0-3.62,2.945-6.568,6.562-6.568h17.155V6.02c0-3.319,2.699-6.02,6.014-6.02h23.891c3.315,0,6.014,2.701,6.014,6.02V7.931z"/>
</svg>
