<?xml version="1.0" encoding="iso-8859-1"?>
<!-- Generator: Adobe Illustrator 27.0.1, SVG Export Plug-In . SVG Version: 6.00 Build 0)  -->
<svg version="1.1" id="&#x421;&#x43B;&#x43E;&#x439;_1"
	 xmlns="http://www.w3.org/2000/svg" xmlns:xlink="http://www.w3.org/1999/xlink" x="0px" y="0px" viewBox="0 0 122.88 122.88"
	 style="enable-background:new 0 0 122.88 122.88;" xml:space="preserve">
<path style="fill-rule:evenodd;clip-rule:evenodd;fill:#39404B;" d="M88.665,52.155c-5.038,5.171-10.209,10.142-15.313,15.247
	c-1.591,1.591-3.182,1.524-4.707-0.066c-5.237-5.303-10.54-10.54-15.777-15.777c-1.591-1.591-1.591-3.116,0-4.707
	c5.237-5.237,10.341-10.474,15.645-15.645c2.651-2.652,6.43-2.851,9.148-0.265c3.977,3.712,7.822,7.623,11.534,11.601
	C92.139,45.671,91.595,49.225,88.665,52.155 M78.192,46.984c0-2.386-2.121-4.441-4.442-4.375c-2.32,0.066-4.243,1.989-4.309,4.309
	c-0.066,2.387,1.989,4.508,4.309,4.508C76.136,51.426,78.192,49.371,78.192,46.984z M49.886,73.832c0,1.856-0.066,3.248,0,4.641
	c0.199,2.32-1.06,3.314-3.182,3.447c-1.458,0.133-2.917,0.332-4.508,0.53c-0.199,1.657-0.464,3.315-0.663,4.905
	c-0.332,2.386-1.856,3.845-4.309,3.845c-6.762,0-5.568,0.464-5.767-5.635c-0.066-2.453,0.729-4.176,2.453-5.833
	c5.105-4.839,10.01-9.877,15.115-14.982c-1.856-1.856-0.597-3.049,0.795-4.441c4.375-4.242,4.309-4.309,8.552-0.066
	c1.458,1.458,2.851,2.983,4.375,4.375c1.061,0.994,1.127,1.856,0,2.851c-1.922,1.79-3.778,3.712-5.767,5.436
	c-0.597,0.53-1.591,0.795-2.453,0.862C53.134,73.899,51.675,73.832,49.886,73.832z M118.271,40.848
	c-0.684-6.325-5.444-14.573-10.579-18.326c0,0-7.681-5.61-17.326-11.175C80.718,5.776,72.02,1.931,72.02,1.931
	c-5.814-2.575-15.343-2.575-21.162,0c0,0-8.697,3.845-18.344,9.416c-9.643,5.565-17.319,11.175-17.319,11.175
	c-5.142,3.753-9.902,12-10.583,18.326c0,0-1.02,9.455-1.02,20.591c0,11.136,1.02,20.589,1.02,20.589
	c0.68,6.331,5.441,14.576,10.577,18.328c0,0,7.681,5.612,17.328,11.181c9.643,5.567,18.34,9.412,18.34,9.412
	c5.819,2.574,15.347,2.574,21.162,0c0,0,8.698-3.845,18.343-9.412c9.647-5.569,17.328-11.181,17.328-11.181
	c5.135-3.753,9.895-11.997,10.579-18.328c0,0,1.016-9.453,1.016-20.589C119.286,50.303,118.271,40.848,118.271,40.848z
	 M113.976,41.312c-0.553-5.113-4.681-12.268-8.833-15.302c-5.339-3.9-11.223-7.623-16.937-10.922
	c-5.725-3.305-11.879-6.525-17.935-9.207c-4.7-2.081-12.963-2.08-17.664,0.001c-6.053,2.679-12.211,5.904-17.932,9.207
	c-5.721,3.302-11.586,7.021-16.931,10.923c-4.155,3.033-8.285,10.185-8.834,15.299c-0.708,6.581-0.996,13.524-0.996,20.129
	c0,6.606,0.289,13.546,0.996,20.127c0.55,5.115,4.677,12.267,8.83,15.302c5.342,3.903,11.221,7.627,16.939,10.928
	c5.719,3.302,11.877,6.526,17.928,9.203c4.701,2.079,12.965,2.081,17.665,0.001c6.055-2.681,12.208-5.899,17.932-9.203
	c5.717-3.3,11.598-7.024,16.939-10.927c4.154-3.036,8.281-10.189,8.833-15.304c0.708-6.573,0.991-13.528,0.991-20.125
	C114.967,54.842,114.684,47.885,113.976,41.312z"/>
</svg>
