<?xml version="1.0" encoding="iso-8859-1"?>
<!-- Generator: Adobe Illustrator 27.0.1, SVG Export Plug-In . SVG Version: 6.00 Build 0)  -->
<svg version="1.1" id="&#x421;&#x43B;&#x43E;&#x439;_1"
	 xmlns="http://www.w3.org/2000/svg" xmlns:xlink="http://www.w3.org/1999/xlink" x="0px" y="0px" viewBox="0 0 122.88 122.88"
	 style="enable-background:new 0 0 122.88 122.88;" xml:space="preserve">
<path style="fill:#39404B;" d="M114.103,98.743H8.777c-2.423-0.003-4.388-1.966-4.388-4.389v-2.606l114.102,0v2.606
	C118.489,96.777,116.269,97.66,114.103,98.743z M75.95,118.492H46.93l5.12-15.36h18.78L75.95,118.492z M4.389,30.72
	c0.003-2.423,1.966-4.386,4.388-4.389h6.583v59.04h4.389V8.777c0.003-2.423,1.966-4.386,4.389-4.389h13.166V0.001H24.137
	c-4.844,0.004-8.773,3.933-8.777,8.777v13.166l-6.583,0C3.933,21.947,0.004,25.876,0,30.721v6.583l4.389,0V30.72z M103.131,48.275
	h4.389v37.097h-4.389V48.275z M89.746,71.632c-0.632-1.009-1.74-1.623-2.931-1.623c-0.047,0-0.094,0.003-0.141,0.003
	c-2.11,0.002-4.005,1.478-5.478,3.165c-1.238-2.71-3.212-3.165-4.396-3.165c-4.423,0-7.894,6.494-8.545,7.796l3.924,1.965
	c1.388-2.761,3.634-5.372,4.619-5.378c0.585,0.323,1.094,2.688,1.099,4.395c0,1.212,0.983,2.194,2.194,2.194
	c0.83,0,1.589-0.469,1.962-1.211c1.069-2.129,2.649-4.167,3.772-4.99c-0.261,1.043-0.638,2.064-1.114,3.026
	c-0.15,0.304-0.231,0.64-0.231,0.98c0,1.212,0.983,2.194,2.194,2.194h9.874v-4.388h-6.642
	C90.404,74.865,90.586,72.991,89.746,71.632z M32.914,78.789C32.914,78.789,32.914,78.789,32.914,78.789
	c0,1.212,0.983,2.194,2.194,2.194c0.582,0,1.141-0.231,1.552-0.643l2.837-2.837v1.285c0,1.212,0.982,2.194,2.194,2.194
	c0.582,0,1.14-0.231,1.552-0.643l2.837-2.837v1.285c0,1.212,0.982,2.194,2.194,2.194c0.474,0,0.937-0.154,1.317-0.439l8.777-6.583
	l-2.633-3.511l-5.266,3.95v-2.194c0,0,0,0,0,0c0-1.212-0.983-2.194-2.194-2.194c-0.582,0-1.141,0.232-1.552,0.643l-2.837,2.837
	v-1.286c0-1.212-0.983-2.194-2.194-2.194c-0.582,0-1.141,0.232-1.552,0.643l-2.837,2.837v-3.48l-4.389,0V78.789z M57.051,76.595
	h4.389v4.388h-4.389V76.595z M58.069,20.669c1-0.226,1.71-1.115,1.71-2.14c0-0.414-0.118-0.821-0.339-1.172
	c-0.132-0.209-0.202-0.451-0.202-0.698c0-0.721,0.585-1.306,1.306-1.306c0.247,0,0.489,0.07,0.698,0.202
	c0.35,0.221,0.757,0.339,1.172,0.339c1.025,0,1.915-0.711,2.14-1.71c0.134-0.595,0.663-1.018,1.274-1.018
	c0.61,0,1.139,0.423,1.274,1.018c0.226,1,1.115,1.71,2.14,1.71c0.415,0,0.822-0.118,1.172-0.339
	c0.208-0.132,0.451-0.202,0.697-0.202c0.721,0,1.306,0.585,1.306,1.306c0,0.247-0.07,0.489-0.202,0.697
	c-0.221,0.351-0.339,0.757-0.339,1.172c0,1.025,0.711,1.914,1.711,2.14c0.595,0.135,1.018,0.664,1.018,1.274
	s-0.423,1.14-1.018,1.274c-1,0.226-1.711,1.115-1.711,2.14c0,0.415,0.118,0.821,0.339,1.172c0.132,0.208,0.202,0.451,0.202,0.697
	c0,0.721-0.585,1.306-1.306,1.306c-0.247,0-0.489-0.07-0.697-0.202c-0.35-0.221-0.757-0.339-1.172-0.339
	c-1.025,0-1.914,0.711-2.14,1.71c-0.135,0.595-0.664,1.018-1.274,1.018c-0.61,0-1.139-0.423-1.274-1.018
	c-0.226-1-1.115-1.71-2.14-1.71c-0.415,0-0.821,0.118-1.172,0.339c-0.209,0.132-0.451,0.202-0.698,0.202
	c-0.721,0-1.306-0.585-1.306-1.306c0-0.247,0.07-0.489,0.202-0.698c0.221-0.351,0.339-0.757,0.339-1.172
	c0-1.025-0.71-1.914-1.71-2.14c-0.596-0.134-1.018-0.664-1.018-1.274S57.474,20.804,58.069,20.669z M52.663,21.943
	c0.001,0.023,0,0.049,0,0.073c0,1.752,0.821,3.404,2.216,4.462c-0.029,0.234-0.044,0.472-0.044,0.708c0,3.175,2.575,5.75,5.75,5.75
	c0.236,0,0.474-0.015,0.708-0.044c1.089,1.397,2.763,2.216,4.536,2.216s3.447-0.818,4.535-2.216
	c0.234,0.029,0.472,0.044,0.708,0.044c3.176,0,5.751-2.575,5.751-5.751c0-0.236-0.015-0.474-0.043-0.707
	c1.397-1.089,2.215-2.764,2.215-4.535c0-1.772-0.818-3.447-2.215-4.536c0.029-0.234,0.043-0.471,0.043-0.707
	c0-3.176-2.575-5.751-5.751-5.751c-0.236,0-0.474,0.015-0.708,0.044c-1.089-1.397-2.763-2.216-4.535-2.216
	c-1.772,0-3.447,0.819-4.536,2.216c-0.233-0.029-0.471-0.044-0.707-0.044c-3.175,0-5.751,2.575-5.751,5.751
	c0,0.236,0.015,0.474,0.044,0.708c-1.396,1.058-2.216,2.71-2.216,4.462C52.662,21.894,52.663,21.92,52.663,21.943L52.663,21.943z
	 M43.886,39.498h35.108v4.388H43.886V39.498z M35.109,39.498h4.388v4.388h-4.388V39.498z M43.886,48.275h13.166v4.388H43.886V48.275
	z M43.886,57.052h21.943v4.389H43.886V57.052z M35.109,57.052h4.388v4.389h-4.388V57.052z M35.109,48.275h4.388v4.388h-4.388V48.275
	z M61.44,48.275h8.777v4.388H61.44V48.275z M77.601,58.762l1.877,1.877l-3.127,1.251L77.601,58.762z M83.383,58.337l-3.48-3.48
	l28.714-28.714l3.479,3.48L83.383,58.337z M116.031,19.749C116.031,19.749,116.031,19.749,116.031,19.749
	c1.359,0,2.461,1.102,2.461,2.46c0,0.652-0.259,1.279-0.721,1.74L115.2,26.52l-3.479-3.48l2.571-2.571
	c0.459-0.461,1.083-0.72,1.733-0.72C116.026,19.749,116.028,19.749,116.031,19.749L116.031,19.749z M39.497,19.749h-7.868
	L43.886,7.492v7.868C43.883,17.783,41.92,19.746,39.497,19.749L39.497,19.749z M122.88,22.21c0-3.782-3.067-6.849-6.849-6.849
	c-1.816,0-3.56,0.722-4.843,2.006l-3.668,3.668V8.777c-0.004-4.844-3.933-8.773-8.777-8.777H46.08c0,0,0,0,0,0
	c-0.582,0-1.141,0.231-1.552,0.643L24.78,20.392c-0.411,0.411-0.643,0.97-0.643,1.552v63.428l4.389,0V24.138h10.971
	c4.845-0.004,8.773-3.933,8.778-8.777V4.389h50.468c2.423,0.003,4.386,1.966,4.389,4.389v16.645L75.248,53.306
	c-0.01,0.01-0.019,0.021-0.027,0.031c-0.02,0.02-0.038,0.042-0.057,0.063c-0.038,0.043-0.075,0.087-0.11,0.133
	c-0.016,0.021-0.031,0.041-0.046,0.063c-0.038,0.055-0.074,0.11-0.106,0.168c-0.008,0.014-0.018,0.027-0.026,0.043
	c-0.042,0.077-0.08,0.157-0.113,0.239l-4.388,10.969c-0.104,0.259-0.157,0.536-0.157,0.815c0,1.212,0.982,2.195,2.194,2.195
	c0.279,0,0.556-0.054,0.815-0.157l10.969-4.389c0.081-0.033,0.16-0.071,0.237-0.112c0.015-0.008,0.03-0.018,0.045-0.028
	c0.056-0.033,0.112-0.068,0.166-0.106c0.022-0.015,0.043-0.031,0.064-0.047c0.045-0.034,0.089-0.071,0.132-0.11
	c0.021-0.019,0.043-0.037,0.063-0.057c0.01-0.01,0.021-0.018,0.032-0.028l33.404-33.403c0.1,0.369,0.152,0.751,0.152,1.133V74.4
	h4.389V30.72c0-0.006,0-0.013,0-0.019c0-1.596-0.439-3.161-1.267-4.525c0.824-1.152,1.267-2.535,1.267-3.951
	C122.88,22.221,122.88,22.214,122.88,22.21L122.88,22.21z M118.491,87.36H4.389V41.692H0v52.663
	c0.005,4.844,3.933,8.777,8.778,8.777h38.647l-5.12,15.36h-5.001v4.388h48.274v-4.388h-5.001l-5.12-15.36h38.647
	c4.844-0.004,8.777-3.933,8.777-8.778V78.788l-4.389,0.001V87.36z"/>
</svg>
