<?xml version="1.0" encoding="iso-8859-1"?>
<!-- Generator: Adobe Illustrator 27.0.1, SVG Export Plug-In . SVG Version: 6.00 Build 0)  -->
<svg version="1.1" id="&#x421;&#x43B;&#x43E;&#x439;_1"
	 xmlns="http://www.w3.org/2000/svg" xmlns:xlink="http://www.w3.org/1999/xlink" x="0px" y="0px" viewBox="0 0 122.88 122.88"
	 style="enable-background:new 0 0 122.88 122.88;" xml:space="preserve">
<path style="fill-rule:evenodd;clip-rule:evenodd;fill:#39404B;" d="M84.826,72.969h-4.269V49.911h4.269V72.969z M73.452,57.078
	c0-1.226-0.467-2.077-1.402-2.555c-0.602-0.312-1.351-0.467-2.244-0.467h-2.524V60.1h2.524c1.267,0,2.192-0.26,2.773-0.779
	C73.162,58.802,73.452,58.054,73.452,57.078z M77.721,57.109c0,1.87-0.53,3.417-1.589,4.643c-1.433,1.662-3.656,2.493-6.668,2.493
	h-2.181v8.725h-4.269V49.911h6.45c3.199,0,5.495,0.924,6.887,2.773C77.264,53.91,77.721,55.385,77.721,57.109z M51.983,62.874
	l-2.618-6.731l-2.618,6.731H51.983z M60.676,72.969h-4.705l-2.368-5.952h-8.475l-2.368,5.952h-4.705l9.597-23.059h3.428
	L60.676,72.969z M61.44,29.52c-17.535,0-31.92,14.385-31.92,31.92s14.385,31.92,31.92,31.92s31.92-14.385,31.92-31.92
	S78.975,29.52,61.44,29.52z M61.44,25.2c19.92,0,36.24,16.32,36.24,36.24S81.36,97.68,61.44,97.68S25.2,81.36,25.2,61.44
	S41.52,25.2,61.44,25.2z M122.88,55.68v11.76c-0.24,2.16-1.68,4.08-3.84,4.56l-9.84,1.68c-0.24,0-0.48,0-0.48,0
	c-0.24,0-0.24,0-0.48,0c-0.96,4.32-2.88,8.64-5.04,12.48c0.24,0.24,0.48,0.48,0.48,0.72l5.76,7.92c0.48,0.72,0.72,1.68,0.72,2.64
	c0,1.2-0.48,2.4-1.2,3.36l-8.4,8.4c-0.96,0.72-1.92,1.2-3.12,1.2c-0.96,0-1.92-0.24-2.88-0.72l-7.92-5.76
	c-0.24-0.24-0.48-0.24-0.72-0.48c-3.84,2.16-8.16,4.08-12.48,5.04c0,0.24,0,0.48,0,0.72c0,0.24,0,0.48,0,0.72l-1.68,8.64
	c-0.48,2.4-2.64,4.32-5.04,4.32h-10.8c-2.4,0-4.56-1.92-5.04-4.32l-1.68-8.64c0-0.24,0-0.48,0-0.72c0-0.24,0-0.48,0-0.72
	c-4.32-0.96-8.64-2.88-12.48-5.04c-0.24,0.24-0.48,0.24-0.72,0.48l-7.92,5.76c-0.96,0.48-1.92,0.72-2.64,0.72
	c-1.44,0-2.4-0.48-3.36-1.2l-8.4-8.4c-0.72-0.96-1.2-2.16-1.2-3.36c0-0.96,0.24-1.68,0.72-2.64l5.76-7.92
	c0-0.24,0.24-0.48,0.48-0.72c-2.16-3.84-4.08-8.16-5.04-12.48c-0.24,0-0.24,0-0.48,0c0,0-0.24,0-0.48,0L3.6,72
	C1.44,71.52,0,69.6,0,67.44V55.68c0-2.16,1.44-4.08,3.6-4.56l9.84-1.68c0.24,0,0.24,0,0.48,0c0.24,0,0.24,0,0.48,0
	c0.96-4.56,2.88-8.64,5.04-12.48c-0.24-0.24-0.48-0.48-0.48-0.72l-5.76-8.16c-0.48-0.72-0.72-1.68-0.72-2.64
	c0-1.2,0.48-2.4,1.2-3.12l8.4-8.4c0.96-0.96,1.92-1.2,3.36-1.2c0.72,0,1.68,0.24,2.64,0.72L36,18.96c0.24,0.24,0.48,0.48,0.72,0.72
	c3.84-2.4,8.16-4.08,12.48-5.28c0,0,0,0,0-0.24c0-0.24,0-0.48,0-0.48l1.68-9.84c0.48-2.16,2.4-3.6,4.56-3.84H67.2
	c2.16,0.24,4.08,1.68,4.56,3.84l1.68,9.84c0,0,0,0.24,0,0.48c0,0.24,0,0.24,0,0.24c4.32,1.2,8.64,2.88,12.48,5.28
	c0.24-0.24,0.48-0.48,0.72-0.72l7.92-5.52c0.96-0.48,1.92-0.72,2.64-0.72c1.44,0,2.4,0.24,3.36,1.2l8.4,8.4
	c0.72,0.72,1.2,1.92,1.2,3.12c0,0.96-0.24,1.92-0.72,2.64l-5.76,8.16c0,0.24-0.24,0.48-0.48,0.72c2.16,3.84,4.08,7.92,5.04,12.48
	c0.24,0,0.24,0,0.48,0c0.24,0,0.24,0,0.48,0l9.84,1.68C121.2,51.6,122.64,53.52,122.88,55.68z M108.834,69.361l9.311-1.59
	c0.22-0.083,0.358-0.412,0.415-0.659V56.008c-0.057-0.247-0.195-0.576-0.415-0.659l-9.311-1.59c-0.038,0-0.076,0-0.114,0
	c-0.16,0-0.32,0-0.48,0h-3.505l-0.722-3.43c-0.844-4.009-2.581-7.702-4.578-11.252l-1.606-2.856l1.96-1.96l6.019-8.527
	c0.024-0.089,0.033-0.217,0.033-0.296c0-0.043-0.013-0.11-0.031-0.162l-8.23-8.23c-0.127-0.01-0.268-0.009-0.352-0.01
	c-0.129,0.014-0.328,0.084-0.504,0.158l-7.3,5.088c-0.15,0.15-0.3,0.3-0.449,0.45l-2.43,2.43l-2.914-1.821
	c-3.476-2.173-7.409-3.687-11.346-4.781l-3.164-0.879V14.4c0-0.08,0-0.16,0-0.24c0-0.038,0-0.076,0-0.114l-1.59-9.311
	c-0.083-0.22-0.412-0.358-0.659-0.415H55.768c-0.247,0.057-0.576,0.195-0.659,0.415l-1.59,9.311c0,0.038,0,0.076,0,0.114
	c0,0.08,0,0.16,0,0.24v3.283l-3.164,0.879c-3.938,1.094-7.87,2.608-11.346,4.781l-2.914,1.821l-2.43-2.43
	c-0.15-0.15-0.3-0.3-0.449-0.45l-7.3-5.088c-0.176-0.074-0.375-0.145-0.504-0.158c-0.084,0.001-0.225-0.001-0.352,0.01l-8.23,8.23
	c-0.018,0.052-0.031,0.119-0.031,0.162c0,0.079,0.009,0.207,0.033,0.296l6.019,8.527l1.96,1.96l-1.606,2.856
	c-1.997,3.55-3.734,7.243-4.578,11.252l-0.722,3.43H14.4c-0.16,0-0.32,0-0.48,0c-0.038,0-0.076,0-0.114,0l-9.308,1.589
	C4.37,55.4,4.32,55.547,4.32,55.68v11.76c0,0.133,0.051,0.28,0.178,0.331l9.308,1.589c0.038,0,0.076,0,0.114,0c0.16,0,0.32,0,0.48,0
	h3.465l0.751,3.383c0.87,3.915,2.628,7.815,4.588,11.299l1.606,2.856l-1.918,1.918l-5.985,8.23c-0.06,0.134-0.109,0.275-0.109,0.395
	c0,0.168,0.106,0.402,0.215,0.586l7.891,7.891c0.154,0.105,0.288,0.164,0.506,0.164c0.121-0.013,0.303-0.076,0.47-0.145l7.409-5.388
	c0.225-0.188,0.457-0.349,0.708-0.497l1.982-1.983l2.856,1.606c3.484,1.96,7.384,3.718,11.299,4.588l3.383,0.751v3.465
	c0,0.24,0,0.48,0,0.72c0,0.101,0,0.203,0,0.304l1.601,8.231c0.062,0.317,0.455,0.825,0.8,0.825h10.8c0.345,0,0.738-0.508,0.8-0.825
	l1.601-8.231c0-0.101,0-0.203,0-0.304c0-0.24,0-0.48,0-0.72v-3.465l3.383-0.751c3.915-0.87,7.815-2.628,11.299-4.588l2.856-1.606
	l1.982,1.983c0.251,0.148,0.483,0.309,0.708,0.497l7.409,5.388c0.215,0.086,0.442,0.146,0.677,0.146
	c0.078-0.022,0.198-0.097,0.309-0.174l7.883-7.882c0.109-0.184,0.215-0.418,0.215-0.586c0-0.077-0.008-0.2-0.031-0.288l-6.063-8.337
	l-1.918-1.918l1.606-2.856c1.96-3.484,3.718-7.384,4.588-11.299l0.751-3.383h3.465c0.16,0,0.32,0,0.48,0
	C108.758,69.361,108.796,69.361,108.834,69.361z"/>
</svg>
