<?xml version="1.0" encoding="iso-8859-1"?>
<!-- Generator: Adobe Illustrator 27.0.1, SVG Export Plug-In . SVG Version: 6.00 Build 0)  -->
<svg version="1.1" id="&#x421;&#x43B;&#x43E;&#x439;_1"
	 xmlns="http://www.w3.org/2000/svg" xmlns:xlink="http://www.w3.org/1999/xlink" x="0px" y="0px" viewBox="0 0 122.88 122.88"
	 style="enable-background:new 0 0 122.88 122.88;" xml:space="preserve">
<path style="fill:#39404B;" d="M60.147,115.123c1.225,0.537,1.266,1.383,1.284,2.526c0.014,0.891,0.041,1.055-0.081,1.267
	c-3.931,0-27.506,0.01-27.58-0.038c-0.136-0.086-0.088-2.201,0.08-2.616c0.265-0.652,0.793-1.117,1.458-1.246
	c0,0,24.35-0.061,24.541-0.021L60.147,115.123z M81.213,72.632c0,2.675-0.269,5.165-1.793,7.231c-1.37,1.857-2.74,3.273-4.861,4.255
	c-2.196,1.016-3.145,1.062-5.871,1.089c-1.996,0.021-2.191,0.017-2.242-0.046c-0.009-0.011,14.405-14.805,14.703-14.763
	C81.204,70.407,81.213,70.687,81.213,72.632z M97.086,65.537c0.051,0.136,0.038,19.573-0.013,19.629
	c-0.101,0.095-6.98-0.273-9.473,0.941c-2.105,1.025-2.31,0.768-4.628,2.619c-1.519,1.213-3.367,3.28-5.298,3.679
	c-0.678,0.14-1.791,0.605-2.904,0.72h-11.74c-1.498-0.309-2.515-2.577-0.212-3.81c0.64-0.343,9.277,0.397,12.016-0.97
	c0.849-0.424,1.529-0.547,2.458-1.115c1.884-1.15,3.65-2.547,4.984-4.408c2.929-4.083,2.997-7.331,2.976-12.643
	c-0.003-0.704,0.167-2.821-0.106-3.344c-0.166-0.31-0.153-0.339,0.415-0.899l0.513-0.509h10.969L97.086,65.537z M104.987,61.536
	l0.016,27.555c0,0-3.67,0.154-3.848,0.051c-0.14-0.081-0.008-27.629,0.034-27.652c0.107-0.062,3.089-0.047,3.734-0.047
	L104.987,61.536z M68.268,61.485c0.042,0.025,0.08,0.063,0.08,0.085c0,0.072-20.637,20.68-20.739,20.705
	c-0.485,0.123-3.042-2.699-1.615-4.4c1.214-1.447,11.903-12.197,14.309-14.194c1.548-1.285,3.389-1.659,5.247-2.098
	C66.009,61.472,68.099,61.396,68.268,61.485z M87.782,52.944c2.031,2.03,2.438,2.459,2.438,2.552
	c0,0.205-35.876,35.931-36.019,35.989c-1.479,0.604-5.807,1.763-6.875,2.297c-1.19,0.596,0.309-1.939,0.742-3.755
	c0.204-0.859,0.819-2.627,1.17-3.501c0.058-0.143,35.79-36.019,35.994-36.019C85.319,50.507,85.777,50.944,87.782,52.944z
	 M97.806,39.784c1.243,0.413,2.044,1.433,2.908,2.463c0.627,0.747,0.287,2.127-0.132,2.92c-0.155,0.292-7.3,7.375-7.417,7.375
	c-0.166,0-4.98-4.814-4.98-4.98c0-0.334,7.248-7.284,7.596-7.532C96.251,39.694,97.254,39.6,97.806,39.784z M69.298,19.889
	l0.017,37.494c0,0-3.675,0.165-3.836,0.063c-0.082-0.052-0.026-1.826-0.148-1.911c-0.11-0.076-35.43-0.106-35.553,0.017
	c-0.1,0.1-0.112,3.724-0.025,3.84c0.082,0.11,28.554,0.102,29.242,0.102c0.618,0-1.65,1.299-2.424,1.988
	c-0.398,0.353-1.422,1.39-1.941,1.912c-4.659,0.003-24.794-0.009-24.876,0.102c-0.086,0.116-0.075,3.74,0.025,3.84
	c0.095,0.095,20.674,0.044,20.714,0.153c0.002,0.005-3.507,3.748-3.759,3.852c-0.354,0.147-20.892-0.059-20.896-0.063
	c-0.095-0.095-0.12-51.337,0-51.413C26.132,19.674,69.298,19.889,69.298,19.889z M64.365,4.032c0.005,0.007-3.387,3.724-3.76,3.878
	H34.58c-0.165-0.059-3.881-3.817-3.827-3.882L64.365,4.032z M24.968,4.011c0.768,0.304,7.111,7.59,8.307,7.862h28.653
	c1.266-0.301,7.253-7.35,8.214-7.845c0.634-0.326,3.245,0.946,3.806,1.373c1.787,1.361,3.052,3.335,3.319,5.54
	c0.038,0.315,0.004,41.677,0.004,41.677c-0.049,0.213-3.818,3.856-3.857,3.823c-0.259-0.218,0.129-38.162-0.085-39.1
	c-0.143-0.629-0.863-1.344-1.483-1.484H23.272c-0.698,0.159-1.34,0.907-1.483,1.525V73.76c0.157,0.719,0.856,1.41,1.568,1.564
	l9.698,0.013c12.512,0.016,9.558-0.462,9.037,1.454c-0.498,1.829-0.639,2.3-0.258,4.255c0.474,2.436,3.664,4.514,3.357,4.993
	c-0.386,0.603-2.756,8.859-3.111,9.053c-0.606,0.333-3.107-0.482-5.769,2.158c-1.595,1.582-1.604,3.836-3.166,3.836
	c-0.609,0-1.23-0.407-1.394-1.009c-0.176-0.642,0.048-4.481-0.14-5.01c-0.448-1.263-0.959-2.5-2.246-3.145
	c-1.708-0.855-2.234-0.914-4.247-0.492c-1.549,0.325-3.176,2.405-3.323,4.204c-0.042,0.564-0.208,0.522,1.988,0.522
	c3.087,0,1.215-0.02,2.479-0.844c0.504-0.328,1.283-0.016,1.462,0.568c0.398,1.296-1.176,5.925,2.276,8.223
	c3.388,2.255,7.389,0.264,8.172-2.289c1.309-4.268,5.416-1.919,7.193-3.056c0.708-0.453,9.349-2.906,11.237-3.848
	c0.618-0.309,1.153-1.778,1.615-0.789c0.611,1.31,2.139,2.472,3.531,2.776c1.617,0.353,0.152,0.212,7.07,0.212
	c5.416,0,6.95,0.097,8.155-0.322c0.2-0.072,0.272-0.029,0.301,0.182l-0.076,15.204c-0.539,1.965-0.992,3.588-2.937,5.031
	c-2.238,1.66-3.597,1.689-6.366,1.704c-3.757,0.02-2.06,0.331-2.496-2.81c-0.348-2.501-2.54-4.703-5.035-5.086H34.758
	c-2.575,0.395-4.42,2.486-4.985,4.959c-0.017,0.073-0.148,2.908-0.148,2.908c-0.022,0.017-5.804,0.53-7.926-1.094
	c-1.917-1.466-2.745-2.222-3.527-4.569c-0.096-0.288-0.286-1.076-0.326-1.484V10.984c0.322-2.561,2.04-5.207,4.43-6.231
	C22.783,4.535,24.403,3.805,24.968,4.011z M29.761,23.855c0,0-0.035,3.755,0.017,3.891c6.812,0,35.541,0.041,35.604-0.08
	c0.041-0.08-0.025-3.836-0.025-3.836s-29.34-0.068-35.531-0.068L29.761,23.855z M29.761,31.782c0,0-0.059,3.746-0.025,3.81
	c0.066,0.128,35.58,0.128,35.646,0c0.041-0.079-0.025-3.836-0.025-3.836s-29.34-0.068-35.531-0.068L29.761,31.782z M29.761,39.707
	c0,0-0.059,3.746-0.025,3.811c0.067,0.128,35.58,0.128,35.646,0c0.041-0.079-0.025-3.836-0.025-3.836s-29.342-0.068-35.531-0.068
	L29.761,39.707z M29.778,47.625c-0.088,0.088-0.126,3.695-0.03,3.827c0.08,0.11,35.552,0.078,35.616,0.025
	c0.054-0.044,0.059-3.108,0.059-3.806C65.176,47.502,29.966,47.437,29.778,47.625z M24.48,0.031
	c-4.408,0.475-7.904,3.322-9.719,7.286c-0.465,1.015-0.775,2.237-0.898,3.369v101.513c0.416,3.835,2.783,7.296,6.146,9.219
	c1.388,0.794,2.832,1.286,4.45,1.462c1.118,0.121,46.517-0.072,46.518-0.072c2.237-0.524,3.613-0.787,5.574-2.306
	c1.518-1.176,3.501-3.513,3.967-5.336c0.173-0.678,0.418-1.124,0.526-1.836c0.331-2.191,0.203-0.289,0.229-9.566l0.026-8.566
	c0.739-0.675,1.513-0.856,4.001-3.187c1.394-1.306,3.476-2.315,5.362-2.577c1.529-0.213,0.515-0.196,3.649-0.216
	c3.99-0.025,2.431-0.418,2.84,2.509c0.08,0.578,0.928,1.303,1.526,1.441h8.773c0.713-0.154,1.411-0.845,1.568-1.564V59.005
	c-0.156-0.675-0.851-1.37-1.526-1.526h-8.858c-0.695,0.159-1.363,0.87-1.505,1.539c-0.108,0.51,0.015,2.24-0.085,2.339
	c-0.036,0.036-6.824,0.236-6.824-0.029c0-0.351,13.682-13.196,14.093-14.636c0.296-1.038,0.721-1.036,0.721-3.073
	c0-1.779-0.366-2.794-1.412-4.183c-2.77-3.679-7.363-5.199-11.088-1.967C92.175,37.781,81.37,48.541,81.34,48.515
	c-0.31-0.26,0.226-36.703-0.178-38.316c-0.154-0.613-0.256-1.068-0.377-1.691c-0.402-2.065-2.471-4.886-4.158-6.074
	c-1.507-1.062-3.069-1.979-4.883-2.216c-2.266-0.296-0.721-0.211-23.994-0.217C35.102-0.003,24.633,0.009,24.48,0.031z"/>
</svg>
